<?xml version="1.0" encoding="UTF-8" standalone="no"?>
<svg
   width="456"
   height="456"
   viewBox="0 0 456 456"
   version="1.1"
   xml:space="preserve"
   style="fill-rule:evenodd;clip-rule:evenodd;stroke-linejoin:round;stroke-miterlimit:2;"
   id="svg4"
   sodipodi:docname="splash.svg"
   inkscape:version="1.3.2 (091e20e, 2023-11-25, custom)"
   xmlns:inkscape="http://www.inkscape.org/namespaces/inkscape"
   xmlns:sodipodi="http://sodipodi.sourceforge.net/DTD/sodipodi-0.dtd"
   xmlns="http://www.w3.org/2000/svg"
   xmlns:svg="http://www.w3.org/2000/svg"><defs
   id="defs4" /><sodipodi:namedview
   id="namedview4"
   pagecolor="#ffffff"
   bordercolor="#000000"
   borderopacity="0.25"
   inkscape:showpageshadow="2"
   inkscape:pageopacity="0.0"
   inkscape:pagecheckerboard="0"
   inkscape:deskcolor="#d1d1d1"
   inkscape:zoom="1.6052632"
   inkscape:cx="271.60655"
   inkscape:cy="230.18032"
   inkscape:window-width="1920"
   inkscape:window-height="1009"
   inkscape:window-x="-8"
   inkscape:window-y="-8"
   inkscape:window-maximized="1"
   inkscape:current-layer="svg4" />
    
    
    
    
<g
   id="g1"
   transform="matrix(4.1609366,0,0,4.1609366,-208.93334,-361.79863)"
   style="fill:#ffffff"><path
     style="fill:#ffffff;fill-opacity:1"
     d="m 112.35168,94.789949 c 4.4392,-0.003 11.70335,-0.003 16.14256,0 4.4392,0.003 0.80712,0.0054 -8.07128,0.0054 -8.87841,0 -12.51048,-0.0024 -8.07128,-0.0054 z"
     id="path4-6" /><path
     style="fill:#ffffff;fill-opacity:1"
     d="m 73.58485,188.63264 c 0.02138,-0.0236 0.04371,-0.043 0.04962,-0.043 0.0059,0 -0.0068,0.0193 -0.02814,0.043 -0.02138,0.0236 -0.04371,0.043 -0.04962,0.043 -0.0059,0 0.0068,-0.0193 0.02814,-0.043 z m 0.171844,-0.15036 c 0.02138,-0.0236 0.04371,-0.043 0.04962,-0.043 0.0059,0 -0.0068,0.0193 -0.02814,0.043 -0.02138,0.0236 -0.04371,0.043 -0.04962,0.043 -0.0059,0 0.0068,-0.0193 0.02814,-0.043 z m 0.171843,-0.15037 c 0.02138,-0.0236 0.04371,-0.043 0.04962,-0.043 0.0059,0 -0.0068,0.0193 -0.02814,0.043 -0.02138,0.0236 -0.04371,0.043 -0.04962,0.043 -0.0059,0 0.0068,-0.0193 0.02814,-0.043 z m 0.139623,-0.11551 c 0,-0.004 0.01692,-0.0214 0.03759,-0.0376 0.03407,-0.0267 0.03483,-0.026 0.0081,0.008 -0.02806,0.0358 -0.0457,0.0472 -0.0457,0.0295 z m 0.171844,-0.15036 c 0,-0.004 0.01692,-0.0214 0.03759,-0.0376 0.03407,-0.0267 0.03483,-0.026 0.0081,0.008 -0.02806,0.0358 -0.0457,0.0472 -0.0457,0.0295 z m 0.182583,-0.16374 c 0.02138,-0.0236 0.04371,-0.043 0.04962,-0.043 0.0059,0 -0.0068,0.0193 -0.02814,0.043 -0.02138,0.0236 -0.04371,0.043 -0.04962,0.043 -0.0059,0 0.0068,-0.0193 0.02814,-0.043 z m 0.171844,-0.15036 c 0.02138,-0.0236 0.04371,-0.043 0.04962,-0.043 0.0059,0 -0.0068,0.0193 -0.02814,0.043 -0.02138,0.0236 -0.04371,0.043 -0.04962,0.043 -0.0059,0 0.0068,-0.0193 0.02814,-0.043 z m 0.171844,-0.15036 c 0.02138,-0.0236 0.04371,-0.043 0.04962,-0.043 0.0059,0 -0.0068,0.0193 -0.02814,0.043 -0.02138,0.0236 -0.04371,0.043 -0.04962,0.043 -0.0059,0 0.0068,-0.0193 0.02814,-0.043 z m 0.171843,-0.15036 c 0.02138,-0.0236 0.04371,-0.043 0.04962,-0.043 0.0059,0 -0.0068,0.0193 -0.02814,0.043 -0.02138,0.0236 -0.04371,0.043 -0.04962,0.043 -0.0059,0 0.0068,-0.0193 0.02814,-0.043 z m 0.139623,-0.11552 c 0,-0.004 0.01692,-0.0214 0.03759,-0.0376 0.03407,-0.0267 0.03483,-0.026 0.0081,0.008 -0.02806,0.0358 -0.0457,0.0472 -0.0457,0.0295 z m 0.171844,-0.15036 c 0,-0.004 0.01691,-0.0214 0.03759,-0.0376 0.03407,-0.0267 0.03483,-0.026 0.0081,0.008 -0.02806,0.0358 -0.0457,0.0472 -0.0457,0.0295 z m 0.182583,-0.16373 c 0.02138,-0.0236 0.04371,-0.043 0.04962,-0.043 0.0059,0 -0.0068,0.0193 -0.02814,0.043 -0.02138,0.0236 -0.04371,0.043 -0.04962,0.043 -0.0059,0 0.0068,-0.0193 0.02814,-0.043 z m 0.171844,-0.15037 c 0.02138,-0.0236 0.04371,-0.043 0.04962,-0.043 0.0059,0 -0.0068,0.0193 -0.02814,0.043 -0.02138,0.0236 -0.04371,0.043 -0.04962,0.043 -0.0059,0 0.0068,-0.0193 0.02814,-0.043 z m 0.139623,-0.11551 c 0,-0.004 0.01692,-0.0214 0.03759,-0.0376 0.03407,-0.0267 0.03483,-0.026 0.0081,0.008 -0.02806,0.0358 -0.0457,0.0472 -0.0457,0.0295 z m 0.204064,-0.18521 c 0.02138,-0.0236 0.04371,-0.043 0.04962,-0.043 0.0059,0 -0.0068,0.0193 -0.02814,0.043 -0.02138,0.0236 -0.04371,0.043 -0.04962,0.043 -0.0059,0 0.0068,-0.0193 0.02814,-0.043 z m 0.139623,-0.11552 c 0,-0.004 0.01692,-0.0214 0.03759,-0.0376 0.03407,-0.0267 0.03483,-0.026 0.0081,0.008 -0.02806,0.0358 -0.0457,0.0472 -0.0457,0.0295 z m 0.171843,-0.15036 c 0,-0.004 0.01692,-0.0214 0.03759,-0.0376 0.03407,-0.0267 0.03483,-0.026 0.0081,0.008 -0.02806,0.0358 -0.0457,0.0472 -0.0457,0.0295 z m 0.182584,-0.16373 c 0.02138,-0.0236 0.04371,-0.043 0.04962,-0.043 0.0059,0 -0.0068,0.0193 -0.02814,0.043 -0.02138,0.0236 -0.04371,0.043 -0.04962,0.043 -0.0059,0 0.0068,-0.0193 0.02814,-0.043 z m 0.171844,-0.15036 c 0.02138,-0.0236 0.04371,-0.043 0.04962,-0.043 0.0059,0 -0.0068,0.0193 -0.02814,0.043 -0.02138,0.0236 -0.04371,0.043 -0.04962,0.043 -0.0059,0 0.0068,-0.0193 0.02814,-0.043 z m 0.171843,-0.15037 c 0.02138,-0.0236 0.04371,-0.043 0.04962,-0.043 0.0059,0 -0.0068,0.0193 -0.02814,0.043 -0.02138,0.0236 -0.04371,0.043 -0.04962,0.043 -0.0059,0 0.0068,-0.0193 0.02814,-0.043 z m 0.171844,-0.15036 c 0.02138,-0.0236 0.04371,-0.043 0.04962,-0.043 0.0059,0 -0.0068,0.0193 -0.02814,0.043 -0.02138,0.0236 -0.04371,0.043 -0.04962,0.043 -0.0059,0 0.0068,-0.0193 0.02814,-0.043 z m 0.139623,-0.11551 c 0,-0.004 0.01692,-0.0214 0.03759,-0.0376 0.03407,-0.0267 0.03483,-0.026 0.0081,0.008 -0.02806,0.0358 -0.0457,0.0472 -0.0457,0.0295 z m 0.171843,-0.15037 c 0,-0.004 0.01692,-0.0214 0.03759,-0.0376 0.03407,-0.0267 0.03483,-0.026 0.0081,0.008 -0.02806,0.0358 -0.0457,0.0472 -0.0457,0.0295 z m 0.182584,-0.16373 c 0.02138,-0.0236 0.04371,-0.043 0.04962,-0.043 0.0059,0 -0.0068,0.0193 -0.02814,0.043 -0.02138,0.0236 -0.04371,0.043 -0.04962,0.043 -0.0059,0 0.0068,-0.0193 0.02814,-0.043 z m 0.171844,-0.15036 c 0.02138,-0.0236 0.04371,-0.043 0.04962,-0.043 0.0059,0 -0.0068,0.0193 -0.02814,0.043 -0.02138,0.0236 -0.04371,0.043 -0.04962,0.043 -0.0059,0 0.0068,-0.0193 0.02814,-0.043 z m 0.171843,-0.15037 c 0.02138,-0.0236 0.04371,-0.043 0.04962,-0.043 0.0059,0 -0.0068,0.0193 -0.02814,0.043 -0.02138,0.0236 -0.04371,0.043 -0.04962,0.043 -0.0059,0 0.0068,-0.0193 0.02814,-0.043 z m 0.171844,-0.15036 c 0.02138,-0.0236 0.04371,-0.043 0.04962,-0.043 0.0059,0 -0.0068,0.0193 -0.02814,0.043 -0.02138,0.0236 -0.04371,0.043 -0.04962,0.043 -0.0059,0 0.0068,-0.0193 0.02814,-0.043 z m 0.139623,-0.11551 c 0,-0.004 0.01692,-0.0214 0.03759,-0.0376 0.03407,-0.0267 0.03483,-0.026 0.0081,0.008 -0.02806,0.0358 -0.0457,0.0472 -0.0457,0.0295 z m 0.171843,-0.15036 c 0,-0.004 0.01692,-0.0214 0.03759,-0.0376 0.03407,-0.0267 0.03483,-0.0259 0.0081,0.008 -0.02806,0.0358 -0.0457,0.0472 -0.0457,0.0295 z m 0.182584,-0.16374 c 0.02138,-0.0236 0.04371,-0.043 0.04962,-0.043 0.0059,0 -0.0068,0.0193 -0.02814,0.043 -0.02138,0.0236 -0.04371,0.043 -0.04962,0.043 -0.0059,0 0.0068,-0.0193 0.02814,-0.043 z m 0.171844,-0.15036 c 0.02138,-0.0236 0.04371,-0.043 0.04962,-0.043 0.0059,0 -0.0068,0.0193 -0.02814,0.043 -0.02138,0.0236 -0.04371,0.043 -0.04962,0.043 -0.0059,0 0.0068,-0.0193 0.02814,-0.043 z m 0.171843,-0.15036 c 0.02138,-0.0236 0.04371,-0.043 0.04962,-0.043 0.0059,0 -0.0068,0.0193 -0.02814,0.043 -0.02138,0.0236 -0.04371,0.043 -0.04962,0.043 -0.0059,0 0.0068,-0.0193 0.02814,-0.043 z m 0.171844,-0.15037 c 0.02138,-0.0236 0.04371,-0.043 0.04962,-0.043 0.0059,0 -0.0068,0.0193 -0.02814,0.043 -0.02138,0.0236 -0.04371,0.043 -0.04962,0.043 -0.0059,0 0.0068,-0.0193 0.02814,-0.043 z m 0.139623,-0.11551 c 0,-0.004 0.01691,-0.0214 0.03759,-0.0376 0.03407,-0.0267 0.03483,-0.026 0.0081,0.008 -0.02806,0.0358 -0.0457,0.0472 -0.0457,0.0295 z m 0.171843,-0.15036 c 0,-0.004 0.01692,-0.0214 0.03759,-0.0376 0.03407,-0.0267 0.03483,-0.026 0.0081,0.008 -0.02806,0.0358 -0.0457,0.0472 -0.0457,0.0295 z m 0.182584,-0.16374 c 0.02138,-0.0236 0.04371,-0.043 0.04962,-0.043 0.0059,0 -0.0068,0.0193 -0.02814,0.043 -0.02138,0.0236 -0.04371,0.043 -0.04962,0.043 -0.0059,0 0.0068,-0.0193 0.02814,-0.043 z m 0.171843,-0.15036 c 0.02138,-0.0236 0.04371,-0.043 0.04962,-0.043 0.0059,0 -0.0068,0.0193 -0.02814,0.043 -0.02138,0.0236 -0.04371,0.043 -0.04962,0.043 -0.0059,0 0.0068,-0.0193 0.02814,-0.043 z m 0.171844,-0.15036 c 0.02138,-0.0236 0.04371,-0.043 0.04962,-0.043 0.0059,0 -0.0068,0.0193 -0.02814,0.043 -0.02138,0.0236 -0.04371,0.043 -0.04962,0.043 -0.0059,0 0.0068,-0.0193 0.02814,-0.043 z m 0.171844,-0.15037 c 0.02138,-0.0236 0.04371,-0.043 0.04962,-0.043 0.0059,0 -0.0068,0.0193 -0.02814,0.043 -0.02138,0.0236 -0.04371,0.043 -0.04962,0.043 -0.0059,0 0.0068,-0.0193 0.02814,-0.043 z m 0.139622,-0.11551 c 0,-0.004 0.01692,-0.0214 0.03759,-0.0376 0.03407,-0.0267 0.03483,-0.026 0.0081,0.008 -0.02806,0.0358 -0.0457,0.0472 -0.0457,0.0295 z m 0.171844,-0.15036 c 0,-0.004 0.01692,-0.0214 0.03759,-0.0376 0.03407,-0.0267 0.03483,-0.026 0.0081,0.008 -0.02806,0.0358 -0.0457,0.0472 -0.0457,0.0295 z m 0.182584,-0.16373 c 0.02138,-0.0236 0.04371,-0.043 0.04962,-0.043 0.0059,0 -0.0068,0.0193 -0.02814,0.043 -0.02138,0.0236 -0.04371,0.043 -0.04962,0.043 -0.0059,0 0.0068,-0.0193 0.02814,-0.043 z m 0.171843,-0.15037 c 0.02138,-0.0236 0.04371,-0.043 0.04962,-0.043 0.0059,0 -0.0068,0.0193 -0.02814,0.043 -0.02138,0.0236 -0.04371,0.043 -0.04962,0.043 -0.0059,0 0.0068,-0.0193 0.02814,-0.043 z m 0.171844,-0.15036 c 0.02138,-0.0236 0.04371,-0.043 0.04962,-0.043 0.0059,0 -0.0068,0.0193 -0.02814,0.043 -0.02138,0.0236 -0.04371,0.043 -0.04962,0.043 -0.0059,0 0.0068,-0.0193 0.02814,-0.043 z m 0.171843,-0.15036 c 0.02138,-0.0236 0.04371,-0.043 0.04962,-0.043 0.0059,0 -0.0068,0.0193 -0.02814,0.043 -0.02138,0.0236 -0.04371,0.043 -0.04962,0.043 -0.0059,0 0.0068,-0.0193 0.02814,-0.043 z m 0.139623,-0.11552 c 0,-0.004 0.01692,-0.0214 0.03759,-0.0376 0.03407,-0.0267 0.03483,-0.026 0.0081,0.008 -0.02806,0.0358 -0.0457,0.0472 -0.0457,0.0295 z m 0.171844,-0.15036 c 0,-0.004 0.01692,-0.0214 0.03759,-0.0376 0.03407,-0.0267 0.03483,-0.026 0.0081,0.008 -0.02806,0.0358 -0.0457,0.0472 -0.0457,0.0295 z m 0.182584,-0.16373 c 0.02138,-0.0236 0.04371,-0.043 0.04962,-0.043 0.0059,0 -0.0068,0.0193 -0.02814,0.043 -0.02138,0.0236 -0.04371,0.043 -0.04962,0.043 -0.0059,0 0.0068,-0.0193 0.02814,-0.043 z m 0.139623,-0.11552 c 0,-0.004 0.01691,-0.0214 0.03759,-0.0376 0.03407,-0.0267 0.03483,-0.026 0.0081,0.008 -0.02806,0.0358 -0.0457,0.0472 -0.0457,0.0295 z m 0.204064,-0.18521 c 0.02138,-0.0236 0.04371,-0.043 0.04962,-0.043 0.0059,0 -0.0068,0.0193 -0.02814,0.043 -0.02138,0.0236 -0.04371,0.043 -0.04962,0.043 -0.0059,0 0.0068,-0.0193 0.02814,-0.043 z m 0.171843,-0.15036 c 0.02138,-0.0236 0.04371,-0.043 0.04962,-0.043 0.0059,0 -0.0068,0.0193 -0.02814,0.043 -0.02138,0.0236 -0.04371,0.043 -0.04962,0.043 -0.0059,0 0.0068,-0.0193 0.02814,-0.043 z m 0.171844,-0.15037 c 0.02138,-0.0236 0.04371,-0.043 0.04962,-0.043 0.0059,0 -0.0068,0.0193 -0.02814,0.043 -0.02138,0.0236 -0.04371,0.043 -0.04962,0.043 -0.0059,0 0.0068,-0.0193 0.02814,-0.043 z m 0.139623,-0.11551 c 0,-0.004 0.01692,-0.0214 0.03759,-0.0376 0.03407,-0.0267 0.03483,-0.026 0.0081,0.008 -0.02806,0.0358 -0.0457,0.0472 -0.0457,0.0295 z m 0.171843,-0.15036 c 0,-0.004 0.01692,-0.0214 0.03759,-0.0376 0.03407,-0.0267 0.03483,-0.026 0.0081,0.008 -0.02806,0.0358 -0.0457,0.0472 -0.0457,0.0295 z m 0.182584,-0.16373 c 0.02138,-0.0236 0.04371,-0.043 0.04962,-0.043 0.0059,0 -0.0068,0.0193 -0.02814,0.043 -0.02138,0.0236 -0.04371,0.043 -0.04962,0.043 -0.0059,0 0.0068,-0.0193 0.02814,-0.043 z m 0.171844,-0.15037 c 0.02138,-0.0236 0.04371,-0.043 0.04962,-0.043 0.0059,0 -0.0068,0.0193 -0.02814,0.043 -0.02138,0.0236 -0.04371,0.043 -0.04962,0.043 -0.0059,0 0.0068,-0.0193 0.02814,-0.043 z m 0.171843,-0.15036 c 0.02138,-0.0236 0.04371,-0.043 0.04962,-0.043 0.0059,0 -0.0068,0.0193 -0.02814,0.043 -0.02138,0.0236 -0.04371,0.043 -0.04962,0.043 -0.0059,0 0.0068,-0.0193 0.02814,-0.043 z m 0.171844,-0.15036 c 0.02138,-0.0236 0.04371,-0.043 0.04962,-0.043 0.0059,0 -0.0068,0.0193 -0.02814,0.043 -0.02138,0.0236 -0.04371,0.043 -0.04962,0.043 -0.0059,0 0.0068,-0.0193 0.02814,-0.043 z m 0.139623,-0.11552 c 0,-0.004 0.01692,-0.0214 0.03759,-0.0376 0.03407,-0.0267 0.03483,-0.026 0.0081,0.008 -0.02806,0.0358 -0.0457,0.0472 -0.0457,0.0295 z m 0.171843,-0.15036 c 0,-0.004 0.01692,-0.0214 0.03759,-0.0376 0.03407,-0.0267 0.03483,-0.026 0.0081,0.008 -0.02806,0.0358 -0.0457,0.0472 -0.0457,0.0295 z m 0.182584,-0.16373 c 0.02138,-0.0236 0.04371,-0.043 0.04962,-0.043 0.0059,0 -0.0068,0.0193 -0.02814,0.043 -0.02138,0.0236 -0.04371,0.043 -0.04962,0.043 -0.0059,0 0.0068,-0.0193 0.02814,-0.043 z m 0.139623,-0.11551 c 0,-0.004 0.01692,-0.0214 0.03759,-0.0376 0.03407,-0.0267 0.03483,-0.0259 0.0081,0.008 -0.02806,0.0358 -0.0457,0.0472 -0.0457,0.0295 z m 0.204064,-0.18522 c 0.02138,-0.0236 0.04371,-0.043 0.04962,-0.043 0.0059,0 -0.0068,0.0193 -0.02814,0.043 -0.02138,0.0236 -0.04371,0.043 -0.04962,0.043 -0.0059,0 0.0068,-0.0193 0.02814,-0.043 z m 0.171844,-0.15036 c 0.02138,-0.0236 0.04371,-0.043 0.04962,-0.043 0.0059,0 -0.0068,0.0193 -0.02814,0.043 -0.02138,0.0236 -0.04371,0.043 -0.04962,0.043 -0.0059,0 0.0068,-0.0193 0.02814,-0.043 z m 0.139623,-0.11551 c 0,-0.004 0.01691,-0.0214 0.03759,-0.0376 0.03407,-0.0267 0.03483,-0.026 0.0081,0.008 -0.02806,0.0358 -0.0457,0.0472 -0.0457,0.0295 z m 0.171843,-0.15037 c 0,-0.004 0.01692,-0.0214 0.03759,-0.0376 0.03407,-0.0267 0.03483,-0.026 0.0081,0.008 -0.02806,0.0358 -0.0457,0.0472 -0.0457,0.0295 z m 0.182584,-0.16373 c 0.02138,-0.0236 0.04371,-0.043 0.04962,-0.043 0.0059,0 -0.0068,0.0193 -0.02814,0.043 -0.02138,0.0236 -0.04371,0.043 -0.04962,0.043 -0.0059,0 0.0068,-0.0193 0.02814,-0.043 z m 0.171843,-0.15036 c 0.02138,-0.0236 0.04371,-0.043 0.04962,-0.043 0.0059,0 -0.0068,0.0193 -0.02814,0.043 -0.02138,0.0236 -0.04371,0.043 -0.04962,0.043 -0.0059,0 0.0068,-0.0193 0.02814,-0.043 z m 0.171844,-0.15037 c 0.02138,-0.0236 0.04371,-0.043 0.04962,-0.043 0.0059,0 -0.0068,0.0193 -0.02814,0.043 -0.02138,0.0236 -0.04371,0.043 -0.04962,0.043 -0.0059,0 0.0068,-0.0193 0.02814,-0.043 z m 0.171844,-0.15036 c 0.02138,-0.0236 0.04371,-0.043 0.04962,-0.043 0.0059,0 -0.0068,0.0193 -0.02814,0.043 -0.02138,0.0236 -0.04371,0.043 -0.04962,0.043 -0.0059,0 0.0068,-0.0193 0.02814,-0.043 z m 0.139622,-0.11551 c 0,-0.004 0.01692,-0.0214 0.03759,-0.0376 0.03407,-0.0267 0.03483,-0.026 0.0081,0.008 -0.02806,0.0358 -0.0457,0.0472 -0.0457,0.0295 z m 0.171844,-0.15037 c 0,-0.004 0.01692,-0.0214 0.03759,-0.0376 0.03407,-0.0267 0.03483,-0.026 0.0081,0.008 -0.02806,0.0358 -0.0457,0.0472 -0.0457,0.0295 z m 0.182584,-0.16373 c 0.02138,-0.0236 0.04371,-0.043 0.04962,-0.043 0.0059,0 -0.0068,0.0193 -0.02814,0.043 -0.02138,0.0236 -0.04371,0.043 -0.04962,0.043 -0.0059,0 0.0068,-0.0193 0.02814,-0.043 z m 0.171843,-0.15036 c 0.02138,-0.0236 0.04371,-0.043 0.04962,-0.043 0.0059,0 -0.0068,0.0193 -0.02814,0.043 -0.02138,0.0236 -0.04371,0.043 -0.04962,0.043 -0.0059,0 0.0068,-0.0193 0.02814,-0.043 z m 0.343687,-0.30073 c 0.02138,-0.0236 0.04371,-0.043 0.04962,-0.043 0.0059,0 -0.0068,0.0193 -0.02814,0.043 -0.02138,0.0236 -0.04371,0.043 -0.04962,0.043 -0.0059,0 0.0068,-0.0193 0.02814,-0.043 z m 0.139623,-0.11551 c 0,-0.004 0.01692,-0.0214 0.03759,-0.0376 0.03407,-0.0267 0.03483,-0.026 0.0081,0.008 -0.02806,0.0358 -0.0457,0.0472 -0.0457,0.0295 z m 0.171844,-0.15036 c 0,-0.004 0.01692,-0.0214 0.03759,-0.0376 0.03407,-0.0267 0.03483,-0.026 0.0081,0.008 -0.02806,0.0358 -0.0457,0.0472 -0.0457,0.0295 z m 0.182584,-0.16374 c 0.02138,-0.0236 0.04371,-0.043 0.04962,-0.043 0.0059,0 -0.0068,0.0193 -0.02814,0.043 -0.02138,0.0236 -0.04371,0.043 -0.04962,0.043 -0.0059,0 0.0068,-0.0193 0.02814,-0.043 z m 0.171843,-0.15036 c 0.02138,-0.0236 0.04371,-0.043 0.04962,-0.043 0.0059,0 -0.0068,0.0193 -0.02814,0.043 -0.02138,0.0236 -0.04371,0.043 -0.04962,0.043 -0.0059,0 0.0068,-0.0193 0.02814,-0.043 z m 0.171844,-0.15036 c 0.02138,-0.0236 0.04371,-0.043 0.04962,-0.043 0.0059,0 -0.0068,0.0193 -0.02814,0.043 -0.02138,0.0236 -0.04371,0.043 -0.04962,0.043 -0.0059,0 0.0068,-0.0193 0.02814,-0.043 z m 0.171843,-0.15037 c 0.02138,-0.0236 0.04371,-0.043 0.04962,-0.043 0.0059,0 -0.0068,0.0193 -0.02814,0.043 -0.02138,0.0236 -0.04371,0.043 -0.04962,0.043 -0.0059,0 0.0068,-0.0193 0.02814,-0.043 z m 0.139623,-0.11551 c 0,-0.004 0.01692,-0.0214 0.03759,-0.0376 0.03407,-0.0267 0.03483,-0.026 0.0081,0.008 -0.02806,0.0358 -0.0457,0.0472 -0.0457,0.0295 z m 0.171844,-0.15036 c 0,-0.004 0.01692,-0.0214 0.03759,-0.0376 0.03407,-0.0267 0.03483,-0.026 0.0081,0.008 -0.02806,0.0358 -0.0457,0.0472 -0.0457,0.0295 z m 0.182584,-0.16374 c 0.02138,-0.0236 0.04371,-0.043 0.04962,-0.043 0.0059,0 -0.0068,0.0193 -0.02814,0.043 -0.02138,0.0236 -0.04371,0.043 -0.04962,0.043 -0.0059,0 0.0068,-0.0193 0.02814,-0.043 z m 0.171843,-0.15036 c 0.02138,-0.0236 0.04371,-0.043 0.04962,-0.043 0.0059,0 -0.0068,0.0193 -0.02814,0.043 -0.02138,0.0236 -0.04371,0.043 -0.04962,0.043 -0.0059,0 0.0068,-0.0193 0.02814,-0.043 z m 0.171844,-0.15036 c 0.02138,-0.0236 0.04371,-0.043 0.04962,-0.043 0.0059,0 -0.0068,0.0193 -0.02814,0.043 -0.02138,0.0236 -0.04371,0.043 -0.04962,0.043 -0.0059,0 0.0068,-0.0193 0.02814,-0.043 z m 0.171843,-0.15036 c 0.02138,-0.0236 0.04371,-0.043 0.04962,-0.043 0.0059,0 -0.0068,0.0193 -0.02814,0.043 -0.02138,0.0236 -0.04371,0.043 -0.04962,0.043 -0.0059,0 0.0068,-0.0193 0.02814,-0.043 z m 0.139623,-0.11552 c 0,-0.004 0.01692,-0.0214 0.03759,-0.0376 0.03407,-0.0267 0.03483,-0.026 0.0081,0.008 -0.02806,0.0358 -0.0457,0.0472 -0.0457,0.0295 z m 0.171844,-0.15036 c 0,-0.004 0.01691,-0.0214 0.03759,-0.0376 0.03407,-0.0267 0.03483,-0.026 0.0081,0.008 -0.02806,0.0358 -0.0457,0.0472 -0.0457,0.0295 z m 0.182583,-0.16373 c 0.02138,-0.0236 0.04371,-0.043 0.04962,-0.043 0.0059,0 -0.0068,0.0193 -0.02814,0.043 -0.02138,0.0236 -0.04371,0.043 -0.04962,0.043 -0.0059,0 0.0068,-0.0193 0.02814,-0.043 z m 0.171844,-0.15037 c 0.02138,-0.0236 0.04371,-0.043 0.04962,-0.043 0.0059,0 -0.0068,0.0193 -0.02814,0.043 -0.02138,0.0236 -0.04371,0.043 -0.04962,0.043 -0.0059,0 0.0068,-0.0193 0.02814,-0.043 z m 0.171844,-0.15036 c 0.02138,-0.0236 0.04371,-0.043 0.04962,-0.043 0.0059,0 -0.0068,0.0193 -0.02814,0.043 -0.02138,0.0236 -0.04371,0.043 -0.04962,0.043 -0.0059,0 0.0068,-0.0193 0.02814,-0.043 z m 0.171843,-0.15036 c 0.02138,-0.0236 0.04371,-0.043 0.04962,-0.043 0.0059,0 -0.0068,0.0193 -0.02814,0.043 -0.02138,0.0236 -0.04371,0.043 -0.04962,0.043 -0.0059,0 0.0068,-0.0193 0.02814,-0.043 z m 0.139623,-0.11552 c 0,-0.004 0.01692,-0.0214 0.03759,-0.0376 0.03407,-0.0267 0.03483,-0.026 0.0081,0.008 -0.02806,0.0358 -0.0457,0.0472 -0.0457,0.0295 z m 0.171844,-0.15036 c 0,-0.004 0.01691,-0.0214 0.03759,-0.0376 0.03407,-0.0267 0.03483,-0.026 0.0081,0.008 -0.02806,0.0358 -0.0457,0.0472 -0.0457,0.0295 z m 0.150363,-0.12888 c 0,-0.004 0.01691,-0.0214 0.03759,-0.0376 0.03407,-0.0267 0.03483,-0.026 0.0081,0.008 -0.02806,0.0358 -0.0457,0.0472 -0.0457,0.0295 z m 0.204064,-0.18521 c 0.02138,-0.0236 0.04371,-0.043 0.04962,-0.043 0.0059,0 -0.0068,0.0193 -0.02814,0.043 -0.02138,0.0236 -0.04371,0.043 -0.04962,0.043 -0.0059,0 0.0068,-0.0193 0.02814,-0.043 z m 0.171843,-0.15037 c 0.02138,-0.0236 0.04371,-0.043 0.04962,-0.043 0.0059,0 -0.0068,0.0193 -0.02814,0.043 -0.02138,0.0236 -0.04371,0.043 -0.04962,0.043 -0.0059,0 0.0068,-0.0193 0.02814,-0.043 z m 0.171844,-0.15036 c 0.02138,-0.0236 0.04371,-0.043 0.04962,-0.043 0.0059,0 -0.0068,0.0193 -0.02814,0.043 -0.02138,0.0236 -0.04371,0.043 -0.04962,0.043 -0.0059,0 0.0068,-0.0193 0.02814,-0.043 z m 0.139623,-0.11551 c 0,-0.004 0.01692,-0.0214 0.03759,-0.0376 0.03407,-0.0267 0.03483,-0.026 0.0081,0.008 -0.02806,0.0358 -0.0457,0.0472 -0.0457,0.0295 z m 0.171843,-0.15037 c 0,-0.004 0.01692,-0.0214 0.03759,-0.0376 0.03407,-0.0267 0.03483,-0.026 0.0081,0.008 -0.02806,0.0358 -0.0457,0.0472 -0.0457,0.0295 z m 0.182584,-0.16373 c 0.02138,-0.0236 0.04371,-0.043 0.04962,-0.043 0.0059,0 -0.0068,0.0193 -0.02814,0.043 -0.02138,0.0236 -0.04371,0.043 -0.04962,0.043 -0.0059,0 0.0068,-0.0193 0.02814,-0.043 z m 0.171844,-0.15036 c 0.02138,-0.0236 0.04371,-0.043 0.04962,-0.043 0.0059,0 -0.0068,0.0193 -0.02814,0.043 -0.02138,0.0236 -0.04371,0.043 -0.04962,0.043 -0.0059,0 0.0068,-0.0193 0.02814,-0.043 z m 0.171843,-0.15037 c 0.02138,-0.0236 0.04371,-0.043 0.04962,-0.043 0.0059,0 -0.0068,0.0193 -0.02814,0.043 -0.02138,0.0236 -0.04371,0.043 -0.04962,0.043 -0.0059,0 0.0068,-0.0193 0.02814,-0.043 z m 0.171844,-0.15036 c 0.02138,-0.0236 0.04371,-0.043 0.04962,-0.043 0.0059,0 -0.0068,0.0193 -0.02814,0.043 -0.02138,0.0236 -0.04371,0.043 -0.04962,0.043 -0.0059,0 0.0068,-0.0193 0.02814,-0.043 z m 0.139623,-0.11551 c 0,-0.004 0.01692,-0.0214 0.03759,-0.0376 0.03407,-0.0267 0.03483,-0.026 0.0081,0.008 -0.02806,0.0358 -0.0457,0.0472 -0.0457,0.0295 z m 0.171843,-0.15036 c 0,-0.004 0.01692,-0.0214 0.03759,-0.0376 0.03407,-0.0267 0.03483,-0.0259 0.0081,0.008 -0.02806,0.0358 -0.0457,0.0472 -0.0457,0.0295 z m 0.182584,-0.16374 c 0.02138,-0.0236 0.04371,-0.043 0.04962,-0.043 0.0059,0 -0.0068,0.0193 -0.02814,0.043 -0.02138,0.0236 -0.04371,0.043 -0.04962,0.043 -0.0059,0 0.0068,-0.0193 0.02814,-0.043 z m 0.139623,-0.11551 c 0,-0.004 0.01692,-0.0214 0.03759,-0.0376 0.03407,-0.0267 0.03483,-0.026 0.0081,0.008 -0.02806,0.0358 -0.0457,0.0472 -0.0457,0.0295 z m 0.204064,-0.18521 c 0.02138,-0.0236 0.04371,-0.043 0.04962,-0.043 0.0059,0 -0.0068,0.0193 -0.02814,0.043 -0.02138,0.0236 -0.04371,0.043 -0.04962,0.043 -0.0059,0 0.0068,-0.0193 0.02814,-0.043 z m 0.171844,-0.15037 c 0.02138,-0.0236 0.04371,-0.043 0.04962,-0.043 0.0059,0 -0.0068,0.0193 -0.02814,0.043 -0.02138,0.0236 -0.04371,0.043 -0.04962,0.043 -0.0059,0 0.0068,-0.0193 0.02814,-0.043 z m 0.139623,-0.11551 c 0,-0.004 0.01691,-0.0214 0.03759,-0.0376 0.03407,-0.0267 0.03483,-0.026 0.0081,0.008 -0.02806,0.0358 -0.0457,0.0472 -0.0457,0.0295 z m 0.171843,-0.15036 c 0,-0.004 0.01692,-0.0214 0.03759,-0.0376 0.03407,-0.0267 0.03483,-0.026 0.0081,0.008 -0.02806,0.0358 -0.0457,0.0472 -0.0457,0.0295 z m 0.182584,-0.16374 c 0.02138,-0.0236 0.04371,-0.043 0.04962,-0.043 0.0059,0 -0.0068,0.0193 -0.02814,0.043 -0.02138,0.0236 -0.04371,0.043 -0.04962,0.043 -0.0059,0 0.0068,-0.0193 0.02814,-0.043 z m 0.171844,-0.15036 c 0.02138,-0.0236 0.04371,-0.043 0.04962,-0.043 0.0059,0 -0.0068,0.0193 -0.02814,0.043 -0.02138,0.0236 -0.04371,0.043 -0.04962,0.043 -0.0059,0 0.0068,-0.0193 0.02814,-0.043 z m 0.171843,-0.15036 c 0.02138,-0.0236 0.04371,-0.043 0.04962,-0.043 0.0059,0 -0.0068,0.0193 -0.02814,0.043 -0.02138,0.0236 -0.04371,0.043 -0.04962,0.043 -0.0059,0 0.0068,-0.0193 0.02814,-0.043 z m 0.171844,-0.15037 c 0.02138,-0.0236 0.04371,-0.043 0.04962,-0.043 0.0059,0 -0.0068,0.0193 -0.02814,0.043 -0.02138,0.0236 -0.04371,0.043 -0.04962,0.043 -0.0059,0 0.0068,-0.0193 0.02814,-0.043 z m 0.139623,-0.11551 c 0,-0.004 0.01692,-0.0214 0.03759,-0.0376 0.03407,-0.0267 0.03483,-0.026 0.0081,0.008 -0.02806,0.0358 -0.0457,0.0472 -0.0457,0.0295 z m 0.171843,-0.15036 c 0,-0.004 0.01692,-0.0214 0.03759,-0.0376 0.03407,-0.0267 0.03483,-0.026 0.0081,0.008 -0.02806,0.0358 -0.0457,0.0472 -0.0457,0.0295 z m 0.182584,-0.16373 c 0.02138,-0.0236 0.04371,-0.043 0.04962,-0.043 0.0059,0 -0.0068,0.0193 -0.02814,0.043 -0.02138,0.0236 -0.04371,0.043 -0.04962,0.043 -0.0059,0 0.0068,-0.0193 0.02814,-0.043 z m 0.171843,-0.15037 c 0.02138,-0.0236 0.04371,-0.043 0.04962,-0.043 0.0059,0 -0.0068,0.0193 -0.02814,0.043 -0.02138,0.0236 -0.04371,0.043 -0.04962,0.043 -0.0059,0 0.0068,-0.0193 0.02814,-0.043 z m 0.171844,-0.15036 c 0.02138,-0.0236 0.04371,-0.043 0.04962,-0.043 0.0059,0 -0.0068,0.0193 -0.02814,0.043 -0.02138,0.0236 -0.04371,0.043 -0.04962,0.043 -0.0059,0 0.0068,-0.0193 0.02814,-0.043 z m 0.171843,-0.15036 c 0.02138,-0.0236 0.04371,-0.043 0.04962,-0.043 0.0059,0 -0.0068,0.0193 -0.02814,0.043 -0.02138,0.0236 -0.04371,0.043 -0.04962,0.043 -0.0059,0 0.0068,-0.0193 0.02814,-0.043 z m 0.139623,-0.11552 c 0,-0.004 0.01692,-0.0214 0.03759,-0.0376 0.03407,-0.0267 0.03483,-0.026 0.0081,0.008 -0.02806,0.0358 -0.0457,0.0472 -0.0457,0.0295 z m 0.171844,-0.15036 c 0,-0.004 0.01692,-0.0214 0.03759,-0.0376 0.03407,-0.0267 0.03483,-0.026 0.0081,0.008 -0.02806,0.0358 -0.0457,0.0472 -0.0457,0.0295 z m 0.182584,-0.16373 c 0.02138,-0.0236 0.04371,-0.043 0.04962,-0.043 0.0059,0 -0.0068,0.0193 -0.02814,0.043 -0.02138,0.0236 -0.04371,0.043 -0.04962,0.043 -0.0059,0 0.0068,-0.0193 0.02814,-0.043 z m 0.171843,-0.15037 c 0.02138,-0.0236 0.04371,-0.043 0.04962,-0.043 0.0059,0 -0.0068,0.0193 -0.02814,0.043 -0.02138,0.0236 -0.04371,0.043 -0.04962,0.043 -0.0059,0 0.0068,-0.0193 0.02814,-0.043 z m 0.171844,-0.15036 c 0.02138,-0.0236 0.04371,-0.043 0.04962,-0.043 0.0059,0 -0.0068,0.0193 -0.02814,0.043 -0.02138,0.0236 -0.04371,0.043 -0.04962,0.043 -0.0059,0 0.0068,-0.0193 0.02814,-0.043 z m 0.171843,-0.15036 c 0.02138,-0.0236 0.04371,-0.043 0.04962,-0.043 0.0059,0 -0.0068,0.0193 -0.02814,0.043 -0.02138,0.0236 -0.04371,0.043 -0.04962,0.043 -0.0059,0 0.0068,-0.0193 0.02814,-0.043 z m 0.139623,-0.11551 c 0,-0.004 0.01692,-0.0214 0.03759,-0.0376 0.03407,-0.0267 0.03483,-0.0259 0.0081,0.008 -0.02806,0.0358 -0.0457,0.0472 -0.0457,0.0295 z m 0.171844,-0.15037 c 0,-0.004 0.01692,-0.0214 0.03759,-0.0376 0.03407,-0.0267 0.03483,-0.026 0.0081,0.008 -0.02806,0.0358 -0.0457,0.0472 -0.0457,0.0295 z m 0.182584,-0.16373 c 0.02138,-0.0236 0.04371,-0.043 0.04962,-0.043 0.0059,0 -0.0068,0.0193 -0.02814,0.043 -0.02138,0.0236 -0.04371,0.043 -0.04962,0.043 -0.0059,0 0.0068,-0.0193 0.02814,-0.043 z m 0.171843,-0.15036 c 0.02138,-0.0236 0.04371,-0.043 0.04962,-0.043 0.0059,0 -0.0068,0.0193 -0.02814,0.043 -0.02138,0.0236 -0.04371,0.043 -0.04962,0.043 -0.0059,0 0.0068,-0.0193 0.02814,-0.043 z m 0.171844,-0.15037 c 0.02138,-0.0236 0.04371,-0.043 0.04962,-0.043 0.0059,0 -0.0068,0.0193 -0.02814,0.043 -0.02138,0.0236 -0.04371,0.043 -0.04962,0.043 -0.0059,0 0.0068,-0.0193 0.02814,-0.043 z m 0.171843,-0.15036 c 0.02138,-0.0236 0.04371,-0.043 0.04962,-0.043 0.0059,0 -0.0068,0.0193 -0.02814,0.043 -0.02138,0.0236 -0.04371,0.043 -0.04962,0.043 -0.0059,0 0.0068,-0.0193 0.02814,-0.043 z m 0.171844,-0.15036 c 0.02138,-0.0236 0.04371,-0.043 0.04962,-0.043 0.0059,0 -0.0068,0.0193 -0.02814,0.043 -0.02138,0.0236 -0.04371,0.043 -0.04962,0.043 -0.0059,0 0.0068,-0.0193 0.02814,-0.043 z m 0.139623,-0.11552 c 0,-0.004 0.01692,-0.0214 0.03759,-0.0376 0.03407,-0.0267 0.03483,-0.026 0.0081,0.008 -0.02806,0.0358 -0.0457,0.0472 -0.0457,0.0295 z m 0.171843,-0.15036 c 0,-0.004 0.01692,-0.0214 0.03759,-0.0376 0.03407,-0.0267 0.03483,-0.026 0.0081,0.008 -0.02806,0.0358 -0.0457,0.0472 -0.0457,0.0295 z m 0.182584,-0.16373 c 0.02138,-0.0236 0.04371,-0.043 0.04962,-0.043 0.0059,0 -0.0068,0.0193 -0.02814,0.043 -0.02138,0.0236 -0.04371,0.043 -0.04962,0.043 -0.0059,0 0.0068,-0.0193 0.02814,-0.043 z m 0.171844,-0.15037 c 0.02138,-0.0236 0.04371,-0.043 0.04962,-0.043 0.0059,0 -0.0068,0.0193 -0.02814,0.043 -0.02138,0.0236 -0.04371,0.043 -0.04962,0.043 -0.0059,0 0.0068,-0.0193 0.02814,-0.043 z m 0.171843,-0.15036 c 0.02138,-0.0236 0.04371,-0.043 0.04962,-0.043 0.0059,0 -0.0068,0.0193 -0.02814,0.043 -0.02138,0.0236 -0.04371,0.043 -0.04962,0.043 -0.0059,0 0.0068,-0.0193 0.02814,-0.043 z m 0.171844,-0.15036 c 0.02138,-0.0236 0.04371,-0.043 0.04962,-0.043 0.0059,0 -0.0068,0.0193 -0.02814,0.043 -0.02138,0.0236 -0.04371,0.043 -0.04962,0.043 -0.0059,0 0.0068,-0.0193 0.02814,-0.043 z m 0.139623,-0.11551 c 0,-0.004 0.01691,-0.0214 0.03759,-0.0376 0.03407,-0.0267 0.03483,-0.026 0.0081,0.008 -0.02806,0.0358 -0.0457,0.0472 -0.0457,0.0295 z m 0.354427,-0.3141 c 0.02138,-0.0236 0.04371,-0.043 0.04962,-0.043 0.0059,0 -0.0068,0.0193 -0.02814,0.043 -0.02138,0.0236 -0.04371,0.043 -0.04962,0.043 -0.0059,0 0.0068,-0.0193 0.02814,-0.043 z m 0.171843,-0.15036 c 0.02138,-0.0236 0.04371,-0.043 0.04962,-0.043 0.0059,0 -0.0068,0.0193 -0.02814,0.043 -0.02138,0.0236 -0.04371,0.043 -0.04962,0.043 -0.0059,0 0.0068,-0.0193 0.02814,-0.043 z m 0.171844,-0.15037 c 0.02138,-0.0236 0.04371,-0.043 0.04962,-0.043 0.0059,0 -0.0068,0.0193 -0.02814,0.043 -0.02138,0.0236 -0.04371,0.043 -0.04962,0.043 -0.0059,0 0.0068,-0.0193 0.02814,-0.043 z m 0.311466,-0.26587 c 0,-0.004 0.01692,-0.0214 0.03759,-0.0376 0.03407,-0.0267 0.03483,-0.026 0.0081,0.008 -0.02806,0.0358 -0.0457,0.0472 -0.0457,0.0295 z m 0.171844,-0.15037 c 0,-0.004 0.01692,-0.0214 0.03759,-0.0376 0.03407,-0.0267 0.03483,-0.026 0.0081,0.008 -0.02806,0.0358 -0.0457,0.0472 -0.0457,0.0295 z m 0.182584,-0.16373 c 0.02138,-0.0236 0.04371,-0.043 0.04962,-0.043 0.0059,0 -0.0068,0.0193 -0.02814,0.043 -0.02138,0.0236 -0.04371,0.043 -0.04962,0.043 -0.0059,0 0.0068,-0.0193 0.02814,-0.043 z m 0.171843,-0.15036 c 0.02138,-0.0236 0.04371,-0.043 0.04962,-0.043 0.0059,0 -0.0068,0.0193 -0.02814,0.043 -0.02138,0.0236 -0.04371,0.043 -0.04962,0.043 -0.0059,0 0.0068,-0.0193 0.02814,-0.043 z m 0.171844,-0.15037 c 0.02138,-0.0236 0.04371,-0.043 0.04962,-0.043 0.0059,0 -0.0068,0.0193 -0.02814,0.043 -0.02138,0.0236 -0.04371,0.043 -0.04962,0.043 -0.0059,0 0.0068,-0.0193 0.02814,-0.043 z m 0.171843,-0.15036 c 0.02138,-0.0236 0.04371,-0.043 0.04962,-0.043 0.0059,0 -0.0068,0.0193 -0.02814,0.043 -0.02138,0.0236 -0.04371,0.043 -0.04962,0.043 -0.0059,0 0.0068,-0.0193 0.02814,-0.043 z m 0.139623,-0.11551 c 0,-0.004 0.01692,-0.0214 0.03759,-0.0376 0.03407,-0.0267 0.03483,-0.026 0.0081,0.008 -0.02806,0.0358 -0.0457,0.0472 -0.0457,0.0295 z m 0.171844,-0.15036 c 0,-0.004 0.01692,-0.0214 0.03759,-0.0376 0.03407,-0.0267 0.03483,-0.026 0.0081,0.008 -0.02806,0.0358 -0.0457,0.0472 -0.0457,0.0295 z m 0.182587,-0.16374 c 0.0214,-0.0236 0.0437,-0.043 0.0496,-0.043 0.006,0 -0.007,0.0193 -0.0281,0.043 -0.0214,0.0236 -0.04372,0.043 -0.04962,0.043 -0.0059,0 0.0068,-0.0193 0.02814,-0.043 z m 0.17184,-0.15036 c 0.0214,-0.0236 0.0437,-0.043 0.0496,-0.043 0.006,0 -0.007,0.0193 -0.0281,0.043 -0.0214,0.0236 -0.0437,0.043 -0.0496,0.043 -0.006,0 0.007,-0.0193 0.0281,-0.043 z m 0.17184,-0.15036 c 0.0214,-0.0236 0.0437,-0.043 0.0496,-0.043 0.006,0 -0.007,0.0193 -0.0281,0.043 -0.0214,0.0236 -0.0437,0.043 -0.0496,0.043 -0.006,0 0.007,-0.0193 0.0281,-0.043 z m 0.17185,-0.15037 c 0.0214,-0.0236 0.0437,-0.043 0.0496,-0.043 0.006,0 -0.007,0.0193 -0.0281,0.043 -0.0214,0.0236 -0.0437,0.043 -0.0496,0.043 -0.006,0 0.007,-0.0193 0.0281,-0.043 z m 0.13962,-0.11551 c 0,-0.004 0.0169,-0.0214 0.0376,-0.0376 0.0341,-0.0267 0.0348,-0.026 0.008,0.008 -0.0281,0.0358 -0.0457,0.0472 -0.0457,0.0295 z m 0.17184,-0.15036 c 0,-0.004 0.0169,-0.0214 0.0376,-0.0376 0.0341,-0.0267 0.0348,-0.026 0.008,0.008 -0.0281,0.0358 -0.0457,0.0472 -0.0457,0.0295 z m 0.18259,-0.16374 c 0.0214,-0.0236 0.0437,-0.043 0.0496,-0.043 0.006,0 -0.007,0.0193 -0.0281,0.043 -0.0214,0.0236 -0.0437,0.043 -0.0496,0.043 -0.006,0 0.007,-0.0193 0.0281,-0.043 z m 0.17184,-0.15036 c 0.0214,-0.0236 0.0437,-0.043 0.0496,-0.043 0.006,0 -0.007,0.0193 -0.0281,0.043 -0.0214,0.0236 -0.0437,0.043 -0.0496,0.043 -0.006,0 0.007,-0.0193 0.0281,-0.043 z m 0.17184,-0.15036 c 0.0214,-0.0236 0.0437,-0.043 0.0496,-0.043 0.006,0 -0.007,0.0193 -0.0281,0.043 -0.0214,0.0236 -0.0437,0.043 -0.0496,0.043 -0.006,0 0.007,-0.0193 0.0281,-0.043 z m 0.17185,-0.15036 c 0.0214,-0.0236 0.0437,-0.043 0.0496,-0.043 0.006,0 -0.007,0.0193 -0.0281,0.043 -0.0214,0.0236 -0.0437,0.043 -0.0496,0.043 -0.006,0 0.007,-0.0193 0.0281,-0.043 z m 0.13962,-0.11552 c 0,-0.004 0.0169,-0.0214 0.0376,-0.0376 0.0341,-0.0267 0.0348,-0.026 0.008,0.008 -0.0281,0.0358 -0.0457,0.0472 -0.0457,0.0295 z m 0.17184,-0.15036 c 0,-0.004 0.0169,-0.0214 0.0376,-0.0376 0.0341,-0.0267 0.0348,-0.026 0.008,0.008 -0.0281,0.0358 -0.0457,0.0472 -0.0457,0.0295 z m 0.18259,-0.16373 c 0.0214,-0.0236 0.0437,-0.043 0.0496,-0.043 0.006,0 -0.007,0.0193 -0.0281,0.043 -0.0214,0.0236 -0.0437,0.043 -0.0496,0.043 -0.006,0 0.007,-0.0193 0.0281,-0.043 z m 0.17184,-0.15037 c 0.0214,-0.0236 0.0437,-0.043 0.0496,-0.043 0.006,0 -0.007,0.0193 -0.0281,0.043 -0.0214,0.0236 -0.0437,0.043 -0.0496,0.043 -0.006,0 0.007,-0.0193 0.0281,-0.043 z m 0.17185,-0.15036 c 0.0214,-0.0236 0.0437,-0.043 0.0496,-0.043 0.006,0 -0.007,0.0193 -0.0281,0.043 -0.0214,0.0236 -0.0437,0.043 -0.0496,0.043 -0.006,0 0.007,-0.0193 0.0281,-0.043 z m 0.17184,-0.15036 c 0.0214,-0.0236 0.0437,-0.043 0.0496,-0.043 0.006,0 -0.007,0.0193 -0.0281,0.043 -0.0214,0.0236 -0.0437,0.043 -0.0496,0.043 -0.006,0 0.007,-0.0193 0.0281,-0.043 z m 0.13962,-0.11552 c 0,-0.004 0.0169,-0.0214 0.0376,-0.0376 0.0341,-0.0267 0.0348,-0.026 0.008,0.008 -0.0281,0.0358 -0.0457,0.0472 -0.0457,0.0295 z m 0.17185,-0.15036 c 0,-0.004 0.0169,-0.0214 0.0376,-0.0376 0.0341,-0.0267 0.0348,-0.026 0.008,0.008 -0.0281,0.0358 -0.0457,0.0472 -0.0457,0.0295 z m 0.18258,-0.16373 c 0.0214,-0.0236 0.0437,-0.043 0.0496,-0.043 0.006,0 -0.007,0.0193 -0.0281,0.043 -0.0214,0.0236 -0.0437,0.043 -0.0496,0.043 -0.006,0 0.007,-0.0193 0.0281,-0.043 z m 0.17184,-0.15036 c 0.0214,-0.0236 0.0437,-0.043 0.0496,-0.043 0.006,0 -0.007,0.0193 -0.0281,0.043 -0.0214,0.0236 -0.0437,0.043 -0.0496,0.043 -0.006,0 0.007,-0.0193 0.0281,-0.043 z m 0.17185,-0.15037 c 0.0214,-0.0236 0.0437,-0.043 0.0496,-0.043 0.006,0 -0.007,0.0193 -0.0281,0.043 -0.0214,0.0236 -0.0437,0.043 -0.0496,0.043 -0.006,0 0.007,-0.0193 0.0281,-0.043 z m 0.17184,-0.15036 c 0.0214,-0.0236 0.0437,-0.043 0.0496,-0.043 0.006,0 -0.007,0.0193 -0.0281,0.043 -0.0214,0.0236 -0.0437,0.043 -0.0496,0.043 -0.006,0 0.007,-0.0193 0.0281,-0.043 z m 0.13962,-0.11551 c 0,-0.004 0.0169,-0.0214 0.0376,-0.0376 0.0341,-0.0267 0.0348,-0.026 0.008,0.008 -0.0281,0.0358 -0.0457,0.0472 -0.0457,0.0295 z m 0.17185,-0.15037 c 0,-0.004 0.0169,-0.0214 0.0376,-0.0376 0.0341,-0.0267 0.0348,-0.026 0.008,0.008 -0.0281,0.0358 -0.0457,0.0472 -0.0457,0.0295 z m 0.18258,-0.16373 c 0.0214,-0.0236 0.0437,-0.043 0.0496,-0.043 0.006,0 -0.007,0.0193 -0.0281,0.043 -0.0214,0.0236 -0.0437,0.043 -0.0496,0.043 -0.006,0 0.007,-0.0193 0.0281,-0.043 z m 0.17184,-0.15036 c 0.0214,-0.0236 0.0437,-0.043 0.0496,-0.043 0.006,0 -0.007,0.0193 -0.0281,0.043 -0.0214,0.0236 -0.0437,0.043 -0.0496,0.043 -0.006,0 0.007,-0.0193 0.0281,-0.043 z m 0.17185,-0.15037 c 0.0214,-0.0236 0.0437,-0.043 0.0496,-0.043 0.006,0 -0.007,0.0193 -0.0281,0.043 -0.0214,0.0236 -0.0437,0.043 -0.0496,0.043 -0.006,0 0.007,-0.0193 0.0281,-0.043 z m 0.17184,-0.15036 c 0.0214,-0.0236 0.0437,-0.043 0.0496,-0.043 0.006,0 -0.007,0.0193 -0.0281,0.043 -0.0214,0.0236 -0.0437,0.043 -0.0496,0.043 -0.006,0 0.007,-0.0193 0.0281,-0.043 z m 0.13962,-0.11551 c 0,-0.004 0.0169,-0.0214 0.0376,-0.0376 0.0341,-0.0267 0.0348,-0.026 0.008,0.008 -0.0281,0.0358 -0.0457,0.0472 -0.0457,0.0295 z m 0.17185,-0.15036 c 0,-0.004 0.0169,-0.0214 0.0376,-0.0376 0.0341,-0.0267 0.0348,-0.0259 0.008,0.008 -0.0281,0.0358 -0.0457,0.0472 -0.0457,0.0295 z m 0.18258,-0.16374 c 0.0214,-0.0236 0.0437,-0.043 0.0496,-0.043 0.006,0 -0.007,0.0193 -0.0281,0.043 -0.0214,0.0236 -0.0437,0.043 -0.0496,0.043 -0.006,0 0.007,-0.0193 0.0281,-0.043 z m 0.17184,-0.15036 c 0.0214,-0.0236 0.0437,-0.043 0.0496,-0.043 0.006,0 -0.007,0.0193 -0.0281,0.043 -0.0214,0.0236 -0.0437,0.043 -0.0496,0.043 -0.006,0 0.007,-0.0193 0.0281,-0.043 z m 0.17185,-0.15036 c 0.0214,-0.0236 0.0437,-0.043 0.0496,-0.043 0.006,0 -0.007,0.0193 -0.0281,0.043 -0.0214,0.0236 -0.0437,0.043 -0.0496,0.043 -0.006,0 0.007,-0.0193 0.0281,-0.043 z m 0.17184,-0.15037 c 0.0214,-0.0236 0.0437,-0.043 0.0496,-0.043 0.006,0 -0.007,0.0193 -0.0281,0.043 -0.0214,0.0236 -0.0437,0.043 -0.0496,0.043 -0.006,0 0.007,-0.0193 0.0281,-0.043 z m 0.13962,-0.11551 c 0,-0.004 0.0169,-0.0214 0.0376,-0.0376 0.0341,-0.0267 0.0348,-0.026 0.008,0.008 -0.0281,0.0358 -0.0457,0.0472 -0.0457,0.0295 z m 0.32221,-0.27925 c 0,-0.004 0.0169,-0.0214 0.0376,-0.0376 0.0341,-0.0267 0.0348,-0.026 0.008,0.008 -0.0281,0.0358 -0.0457,0.0472 -0.0457,0.0295 z m 0.20407,-0.18521 c 0.0214,-0.0236 0.0437,-0.043 0.0496,-0.043 0.006,0 -0.007,0.0193 -0.0281,0.043 -0.0214,0.0236 -0.0437,0.043 -0.0496,0.043 -0.006,0 0.007,-0.0193 0.0281,-0.043 z m 0.17184,-0.15036 c 0.0214,-0.0236 0.0437,-0.043 0.0496,-0.043 0.006,0 -0.007,0.0193 -0.0281,0.043 -0.0214,0.0236 -0.0437,0.043 -0.0496,0.043 -0.006,0 0.007,-0.0193 0.0281,-0.043 z m 0.31147,-0.26588 c 0,-0.004 0.0169,-0.0214 0.0376,-0.0376 0.0341,-0.0267 0.0348,-0.026 0.008,0.008 -0.0281,0.0358 -0.0457,0.0472 -0.0457,0.0295 z m 0.17184,-0.15036 c 0,-0.004 0.0169,-0.0214 0.0376,-0.0376 0.0341,-0.0267 0.0348,-0.026 0.008,0.008 -0.0281,0.0358 -0.0457,0.0472 -0.0457,0.0295 z m 0.18258,-0.16373 c 0.0214,-0.0236 0.0437,-0.043 0.0496,-0.043 0.006,0 -0.007,0.0193 -0.0281,0.043 -0.0214,0.0236 -0.0437,0.043 -0.0496,0.043 -0.006,0 0.007,-0.0193 0.0281,-0.043 z m 0.17185,-0.15037 c 0.0214,-0.0236 0.0437,-0.043 0.0496,-0.043 0.006,0 -0.007,0.0193 -0.0281,0.043 -0.0214,0.0236 -0.0437,0.043 -0.0496,0.043 -0.006,0 0.007,-0.0193 0.0281,-0.043 z m 0.17184,-0.15036 c 0.0214,-0.0236 0.0437,-0.043 0.0496,-0.043 0.006,0 -0.007,0.0193 -0.0281,0.043 -0.0214,0.0236 -0.0437,0.043 -0.0496,0.043 -0.006,0 0.007,-0.0193 0.0281,-0.043 z m 0.17184,-0.15036 c 0.0214,-0.0236 0.0437,-0.043 0.0496,-0.043 0.006,0 -0.007,0.0193 -0.0281,0.043 -0.0214,0.0236 -0.0437,0.043 -0.0496,0.043 -0.006,0 0.007,-0.0193 0.0281,-0.043 z m 0.13963,-0.11552 c 0,-0.004 0.0169,-0.0214 0.0376,-0.0376 0.0341,-0.0267 0.0348,-0.026 0.008,0.008 -0.0281,0.0358 -0.0457,0.0472 -0.0457,0.0295 z m 0.17184,-0.15036 c 0,-0.004 0.0169,-0.0214 0.0376,-0.0376 0.0341,-0.0267 0.0348,-0.026 0.008,0.008 -0.0281,0.0358 -0.0457,0.0472 -0.0457,0.0295 z m 0.18258,-0.16373 c 0.0214,-0.0236 0.0437,-0.043 0.0496,-0.043 0.006,0 -0.007,0.0193 -0.0281,0.043 -0.0214,0.0236 -0.0437,0.043 -0.0496,0.043 -0.006,0 0.007,-0.0193 0.0281,-0.043 z m 0.17185,-0.15037 c 0.0214,-0.0236 0.0437,-0.043 0.0496,-0.043 0.006,0 -0.007,0.0193 -0.0281,0.043 -0.0214,0.0236 -0.0437,0.043 -0.0496,0.043 -0.006,0 0.007,-0.0193 0.0281,-0.043 z m 0.17184,-0.15036 c 0.0214,-0.0236 0.0437,-0.043 0.0496,-0.043 0.006,0 -0.007,0.0193 -0.0281,0.043 -0.0214,0.0236 -0.0437,0.043 -0.0496,0.043 -0.006,0 0.007,-0.0193 0.0281,-0.043 z m 0.17184,-0.15036 c 0.0214,-0.0236 0.0437,-0.043 0.0496,-0.043 0.006,0 -0.007,0.0193 -0.0281,0.043 -0.0214,0.0236 -0.0437,0.043 -0.0496,0.043 -0.006,0 0.007,-0.0193 0.0281,-0.043 z m 0.13963,-0.11551 c 0,-0.004 0.0169,-0.0214 0.0376,-0.0376 0.0341,-0.0267 0.0348,-0.0259 0.008,0.008 -0.0281,0.0358 -0.0457,0.0472 -0.0457,0.0295 z m 0.17184,-0.15037 c 0,-0.004 0.0169,-0.0214 0.0376,-0.0376 0.0341,-0.0267 0.0348,-0.026 0.008,0.008 -0.0281,0.0358 -0.0457,0.0472 -0.0457,0.0295 z m 0.18258,-0.16373 c 0.0214,-0.0236 0.0437,-0.043 0.0496,-0.043 0.006,0 -0.007,0.0193 -0.0281,0.043 -0.0214,0.0236 -0.0437,0.043 -0.0496,0.043 -0.006,0 0.007,-0.0193 0.0281,-0.043 z m 0.17185,-0.15036 c 0.0214,-0.0236 0.0437,-0.043 0.0496,-0.043 0.006,0 -0.007,0.0193 -0.0281,0.043 -0.0214,0.0236 -0.0437,0.043 -0.0496,0.043 -0.006,0 0.007,-0.0193 0.0281,-0.043 z m 0.17184,-0.15037 c 0.0214,-0.0236 0.0437,-0.043 0.0496,-0.043 0.006,0 -0.007,0.0193 -0.0281,0.043 -0.0214,0.0236 -0.0437,0.043 -0.0496,0.043 -0.006,0 0.007,-0.0193 0.0281,-0.043 z m 0.17185,-0.15036 c 0.0214,-0.0236 0.0437,-0.043 0.0496,-0.043 0.006,0 -0.007,0.0193 -0.0281,0.043 -0.0214,0.0236 -0.0437,0.043 -0.0496,0.043 -0.006,0 0.007,-0.0193 0.0281,-0.043 z m 0.13962,-0.11551 c 0,-0.004 0.0169,-0.0214 0.0376,-0.0376 0.0341,-0.0267 0.0348,-0.026 0.008,0.008 -0.0281,0.0358 -0.0457,0.0472 -0.0457,0.0295 z m 0.17184,-0.15037 c 0,-0.004 0.0169,-0.0214 0.0376,-0.0376 0.0341,-0.0267 0.0348,-0.026 0.008,0.008 -0.0281,0.0358 -0.0457,0.0472 -0.0457,0.0295 z m 0.18259,-0.16373 c 0.0214,-0.0236 0.0437,-0.043 0.0496,-0.043 0.006,0 -0.007,0.0193 -0.0281,0.043 -0.0214,0.0236 -0.0437,0.043 -0.0496,0.043 -0.006,0 0.007,-0.0193 0.0281,-0.043 z m 0.17184,-0.15036 c 0.0214,-0.0236 0.0437,-0.043 0.0496,-0.043 0.006,0 -0.007,0.0193 -0.0281,0.043 -0.0214,0.0236 -0.0437,0.043 -0.0496,0.043 -0.006,0 0.007,-0.0193 0.0281,-0.043 z m 0.17184,-0.15037 c 0.0214,-0.0236 0.0437,-0.043 0.0496,-0.043 0.006,0 -0.007,0.0193 -0.0281,0.043 -0.0214,0.0236 -0.0437,0.043 -0.0496,0.043 -0.006,0 0.007,-0.0193 0.0281,-0.043 z m 0.17185,-0.15036 c 0.0214,-0.0236 0.0437,-0.043 0.0496,-0.043 0.006,0 -0.007,0.0193 -0.0281,0.043 -0.0214,0.0236 -0.0437,0.043 -0.0496,0.043 -0.006,0 0.007,-0.0193 0.0281,-0.043 z m 0.13962,-0.11551 c 0,-0.004 0.0169,-0.0214 0.0376,-0.0376 0.0341,-0.0267 0.0348,-0.026 0.008,0.008 -0.0281,0.0358 -0.0457,0.0472 -0.0457,0.0295 z m 0.17184,-0.15036 c 0,-0.004 0.0169,-0.0214 0.0376,-0.0376 0.0341,-0.0267 0.0348,-0.026 0.008,0.008 -0.0281,0.0358 -0.0457,0.0472 -0.0457,0.0295 z m 0.18259,-0.16374 c 0.0214,-0.0236 0.0437,-0.043 0.0496,-0.043 0.006,0 -0.007,0.0193 -0.0281,0.043 -0.0214,0.0236 -0.0437,0.043 -0.0496,0.043 -0.006,0 0.007,-0.0193 0.0281,-0.043 z m 0.17184,-0.15036 c 0.0214,-0.0236 0.0437,-0.043 0.0496,-0.043 0.006,0 -0.007,0.0193 -0.0281,0.043 -0.0214,0.0236 -0.0437,0.043 -0.0496,0.043 -0.006,0 0.007,-0.0193 0.0281,-0.043 z m 0.17184,-0.15036 c 0.0214,-0.0236 0.0437,-0.043 0.0496,-0.043 0.006,0 -0.007,0.0193 -0.0281,0.043 -0.0214,0.0236 -0.0437,0.043 -0.0496,0.043 -0.006,0 0.007,-0.0193 0.0281,-0.043 z m 0.17185,-0.15037 c 0.0214,-0.0236 0.0437,-0.043 0.0496,-0.043 0.006,0 -0.007,0.0193 -0.0281,0.043 -0.0214,0.0236 -0.0437,0.043 -0.0496,0.043 -0.006,0 0.007,-0.0193 0.0281,-0.043 z m 0.17184,-0.15036 c 0.0214,-0.0236 0.0437,-0.043 0.0496,-0.043 0.006,0 -0.007,0.0193 -0.0281,0.043 -0.0214,0.0236 -0.0437,0.043 -0.0496,0.043 -0.006,0 0.007,-0.0193 0.0281,-0.043 z m 0.13962,-0.11551 c 0,-0.004 0.0169,-0.0214 0.0376,-0.0376 0.0341,-0.0267 0.0348,-0.026 0.008,0.008 -0.0281,0.0358 -0.0457,0.0472 -0.0457,0.0295 z m 0.17185,-0.15037 c 0,-0.004 0.0169,-0.0214 0.0376,-0.0376 0.0341,-0.0267 0.0348,-0.026 0.008,0.008 -0.0281,0.0358 -0.0457,0.0472 -0.0457,0.0295 z m 0.18258,-0.16373 c 0.0214,-0.0236 0.0437,-0.043 0.0496,-0.043 0.006,0 -0.007,0.0193 -0.0281,0.043 -0.0214,0.0236 -0.0437,0.043 -0.0496,0.043 -0.006,0 0.007,-0.0193 0.0281,-0.043 z m 0.17184,-0.15036 c 0.0214,-0.0236 0.0437,-0.043 0.0496,-0.043 0.006,0 -0.007,0.0193 -0.0281,0.043 -0.0214,0.0236 -0.0437,0.043 -0.0496,0.043 -0.006,0 0.007,-0.0193 0.0281,-0.043 z m 0.17185,-0.15037 c 0.0214,-0.0236 0.0437,-0.043 0.0496,-0.043 0.006,0 -0.007,0.0193 -0.0281,0.043 -0.0214,0.0236 -0.0437,0.043 -0.0496,0.043 -0.006,0 0.007,-0.0193 0.0281,-0.043 z m 0.17184,-0.15036 c 0.0214,-0.0236 0.0437,-0.043 0.0496,-0.043 0.006,0 -0.007,0.0193 -0.0281,0.043 -0.0214,0.0236 -0.0437,0.043 -0.0496,0.043 -0.006,0 0.007,-0.0193 0.0281,-0.043 z m 0.13962,-0.11551 c 0,-0.004 0.0169,-0.0214 0.0376,-0.0376 0.0341,-0.0267 0.0348,-0.026 0.008,0.008 -0.0281,0.0358 -0.0457,0.0472 -0.0457,0.0295 z m 0.17185,-0.15036 c 0,-0.004 0.0169,-0.0214 0.0376,-0.0376 0.0341,-0.0267 0.0348,-0.026 0.008,0.008 -0.0281,0.0358 -0.0457,0.0472 -0.0457,0.0295 z m 0.18258,-0.16374 c 0.0214,-0.0236 0.0437,-0.043 0.0496,-0.043 0.006,0 -0.007,0.0193 -0.0281,0.043 -0.0214,0.0236 -0.0437,0.043 -0.0496,0.043 -0.006,0 0.007,-0.0193 0.0281,-0.043 z m 0.17185,-0.15036 c 0.0214,-0.0236 0.0437,-0.043 0.0496,-0.043 0.006,0 -0.007,0.0193 -0.0281,0.043 -0.0214,0.0236 -0.0437,0.043 -0.0496,0.043 -0.006,0 0.007,-0.0193 0.0281,-0.043 z m 0.17184,-0.15036 c 0.0214,-0.0236 0.0437,-0.043 0.0496,-0.043 0.006,0 -0.007,0.0193 -0.0281,0.043 -0.0214,0.0236 -0.0437,0.043 -0.0496,0.043 -0.006,0 0.007,-0.0193 0.0281,-0.043 z m 0.17184,-0.15037 c 0.0214,-0.0236 0.0437,-0.043 0.0496,-0.043 0.006,0 -0.007,0.0193 -0.0281,0.043 -0.0214,0.0236 -0.0437,0.043 -0.0496,0.043 -0.006,0 0.007,-0.0193 0.0281,-0.043 z m 0.31147,-0.26587 c 0,-0.004 0.0169,-0.0214 0.0376,-0.0376 0.0341,-0.0267 0.0348,-0.026 0.008,0.008 -0.0281,0.0358 -0.0457,0.0472 -0.0457,0.0295 z m 0.18258,-0.16374 c 0.0214,-0.0236 0.0437,-0.043 0.0496,-0.043 0.006,0 -0.007,0.0193 -0.0281,0.043 -0.0214,0.0236 -0.0437,0.043 -0.0496,0.043 -0.006,0 0.007,-0.0193 0.0281,-0.043 z m 0.17185,-0.15036 c 0.0214,-0.0236 0.0437,-0.043 0.0496,-0.043 0.006,0 -0.007,0.0193 -0.0281,0.043 -0.0214,0.0236 -0.0437,0.043 -0.0496,0.043 -0.006,0 0.007,-0.0193 0.0281,-0.043 z m 0.17184,-0.15036 c 0.0214,-0.0236 0.0437,-0.043 0.0496,-0.043 0.006,0 -0.007,0.0193 -0.0281,0.043 -0.0214,0.0236 -0.0437,0.043 -0.0496,0.043 -0.006,0 0.007,-0.0193 0.0281,-0.043 z m 0.17184,-0.15036 c 0.0214,-0.0236 0.0437,-0.043 0.0496,-0.043 0.006,0 -0.007,0.0193 -0.0281,0.043 -0.0214,0.0236 -0.0437,0.043 -0.0496,0.043 -0.006,0 0.007,-0.0193 0.0281,-0.043 z m 0.13963,-0.11552 c 0,-0.004 0.0169,-0.0214 0.0376,-0.0376 0.0341,-0.0267 0.0348,-0.026 0.008,0.008 -0.0281,0.0358 -0.0457,0.0472 -0.0457,0.0295 z m 0.17184,-0.15036 c 0,-0.004 0.0169,-0.0214 0.0376,-0.0376 0.0341,-0.0267 0.0348,-0.026 0.008,0.008 -0.0281,0.0358 -0.0457,0.0472 -0.0457,0.0295 z m 0.18258,-0.16373 c 0.0214,-0.0236 0.0437,-0.043 0.0496,-0.043 0.006,0 -0.007,0.0193 -0.0281,0.043 -0.0214,0.0236 -0.0437,0.043 -0.0496,0.043 -0.006,0 0.007,-0.0193 0.0281,-0.043 z m 0.17185,-0.15037 c 0.0214,-0.0236 0.0437,-0.043 0.0496,-0.043 0.006,0 -0.007,0.0193 -0.0281,0.043 -0.0214,0.0236 -0.0437,0.043 -0.0496,0.043 -0.006,0 0.007,-0.0193 0.0281,-0.043 z m 0.17184,-0.15036 c 0.0214,-0.0236 0.0437,-0.043 0.0496,-0.043 0.006,0 -0.007,0.0193 -0.0281,0.043 -0.0214,0.0236 -0.0437,0.043 -0.0496,0.043 -0.006,0 0.007,-0.0193 0.0281,-0.043 z m 0.13962,-0.11551 c 0,-0.004 0.0169,-0.0214 0.0376,-0.0376 0.0341,-0.0267 0.0348,-0.026 0.008,0.008 -0.0281,0.0358 -0.0457,0.0472 -0.0457,0.0295 z m 0.17185,-0.15037 c 0,-0.004 0.0169,-0.0214 0.0376,-0.0376 0.0341,-0.0267 0.0348,-0.0259 0.008,0.008 -0.0281,0.0358 -0.0457,0.0472 -0.0457,0.0295 z m 0.17184,-0.15036 c 0,-0.004 0.0169,-0.0214 0.0376,-0.0376 0.0341,-0.0267 0.0348,-0.026 0.008,0.008 -0.0281,0.0358 -0.0457,0.0472 -0.0457,0.0295 z m 0.18258,-0.16373 c 0.0214,-0.0236 0.0437,-0.043 0.0496,-0.043 0.006,0 -0.007,0.0193 -0.0281,0.043 -0.0214,0.0236 -0.0437,0.043 -0.0496,0.043 -0.006,0 0.007,-0.0193 0.0281,-0.043 z m 0.17185,-0.15036 c 0.0214,-0.0236 0.0437,-0.043 0.0496,-0.043 0.006,0 -0.007,0.0193 -0.0281,0.043 -0.0214,0.0236 -0.0437,0.043 -0.0496,0.043 -0.006,0 0.007,-0.0193 0.0281,-0.043 z m 0.17184,-0.15037 c 0.0214,-0.0236 0.0437,-0.043 0.0496,-0.043 0.006,0 -0.007,0.0193 -0.0281,0.043 -0.0214,0.0236 -0.0437,0.043 -0.0496,0.043 -0.006,0 0.007,-0.0193 0.0281,-0.043 z m 0.17185,-0.15036 c 0.0214,-0.0236 0.0437,-0.043 0.0496,-0.043 0.006,0 -0.007,0.0193 -0.0281,0.043 -0.0214,0.0236 -0.0437,0.043 -0.0496,0.043 -0.006,0 0.007,-0.0193 0.0281,-0.043 z m 0.13962,-0.11551 c 0,-0.004 0.0169,-0.0214 0.0376,-0.0376 0.0341,-0.0267 0.0348,-0.026 0.008,0.008 -0.0281,0.0358 -0.0457,0.0472 -0.0457,0.0295 z m 0.17184,-0.15037 c 0,-0.004 0.0169,-0.0214 0.0376,-0.0376 0.0341,-0.0267 0.0348,-0.026 0.008,0.008 -0.0281,0.0358 -0.0457,0.0472 -0.0457,0.0295 z m 0.18259,-0.16373 c 0.0214,-0.0236 0.0437,-0.043 0.0496,-0.043 0.006,0 -0.007,0.0193 -0.0281,0.043 -0.0214,0.0236 -0.0437,0.043 -0.0496,0.043 -0.006,0 0.007,-0.0193 0.0281,-0.043 z m 0.17184,-0.15036 c 0.0214,-0.0236 0.0437,-0.043 0.0496,-0.043 0.006,0 -0.007,0.0193 -0.0281,0.043 -0.0214,0.0236 -0.0437,0.043 -0.0496,0.043 -0.006,0 0.007,-0.0193 0.0281,-0.043 z m 0.17184,-0.15037 c 0.0214,-0.0236 0.0437,-0.043 0.0496,-0.043 0.006,0 -0.007,0.0193 -0.0281,0.043 -0.0214,0.0236 -0.0437,0.043 -0.0496,0.043 -0.006,0 0.007,-0.0193 0.0281,-0.043 z m 0.17185,-0.15036 c 0.0214,-0.0236 0.0437,-0.043 0.0496,-0.043 0.006,0 -0.007,0.0193 -0.0281,0.043 -0.0214,0.0236 -0.0437,0.043 -0.0496,0.043 -0.006,0 0.007,-0.0193 0.0281,-0.043 z m 0.13962,-0.11551 c 0,-0.004 0.0169,-0.0214 0.0376,-0.0376 0.0341,-0.0267 0.0348,-0.026 0.008,0.008 -0.0281,0.0358 -0.0457,0.0472 -0.0457,0.0295 z m 0.17184,-0.15036 c 0,-0.004 0.0169,-0.0214 0.0376,-0.0376 0.0341,-0.0267 0.0348,-0.026 0.008,0.008 -0.0281,0.0358 -0.0457,0.0472 -0.0457,0.0295 z m 0.18259,-0.16374 c 0.0214,-0.0236 0.0437,-0.043 0.0496,-0.043 0.006,0 -0.007,0.0193 -0.0281,0.043 -0.0214,0.0236 -0.0437,0.043 -0.0496,0.043 -0.006,0 0.007,-0.0193 0.0281,-0.043 z m 0.17184,-0.15036 c 0.0214,-0.0236 0.0437,-0.043 0.0496,-0.043 0.006,0 -0.007,0.0193 -0.0281,0.043 -0.0214,0.0236 -0.0437,0.043 -0.0496,0.043 -0.006,0 0.007,-0.0193 0.0281,-0.043 z m 0.17184,-0.15036 c 0.0214,-0.0236 0.0437,-0.043 0.0496,-0.043 0.006,0 -0.007,0.0193 -0.0281,0.043 -0.0214,0.0236 -0.0437,0.043 -0.0496,0.043 -0.006,0 0.007,-0.0193 0.0281,-0.043 z m 0.17185,-0.15037 c 0.0214,-0.0236 0.0437,-0.043 0.0496,-0.043 0.006,0 -0.007,0.0193 -0.0281,0.043 -0.0214,0.0236 -0.0437,0.043 -0.0496,0.043 -0.006,0 0.007,-0.0193 0.0281,-0.043 z m 0.13962,-0.11551 c 0,-0.004 0.0169,-0.0214 0.0376,-0.0376 0.0341,-0.0267 0.0348,-0.026 0.008,0.008 -0.0281,0.0358 -0.0457,0.0472 -0.0457,0.0295 z m 0.17184,-0.15036 c 0,-0.004 0.0169,-0.0214 0.0376,-0.0376 0.0341,-0.0267 0.0348,-0.026 0.008,0.008 -0.0281,0.0358 -0.0457,0.0472 -0.0457,0.0295 z m 0.18259,-0.16374 c 0.0214,-0.0236 0.0437,-0.043 0.0496,-0.043 0.006,0 -0.007,0.0193 -0.0281,0.043 -0.0214,0.0236 -0.0437,0.043 -0.0496,0.043 -0.006,0 0.007,-0.0193 0.0281,-0.043 z m 0.17184,-0.15036 c 0.0214,-0.0236 0.0437,-0.043 0.0496,-0.043 0.006,0 -0.007,0.0193 -0.0281,0.043 -0.0214,0.0236 -0.0437,0.043 -0.0496,0.043 -0.006,0 0.007,-0.0193 0.0281,-0.043 z m 0.13962,-0.11551 c 0,-0.004 0.0169,-0.0214 0.0376,-0.0376 0.0341,-0.0267 0.0348,-0.026 0.008,0.008 -0.0281,0.0358 -0.0457,0.0472 -0.0457,0.0295 z m 0.20407,-0.18522 c 0.0214,-0.0236 0.0437,-0.043 0.0496,-0.043 0.006,0 -0.007,0.0193 -0.0281,0.043 -0.0214,0.0236 -0.0437,0.043 -0.0496,0.043 -0.006,0 0.007,-0.0193 0.0281,-0.043 z m 0.13962,-0.11551 c 0,-0.004 0.0169,-0.0214 0.0376,-0.0376 0.0341,-0.0267 0.0348,-0.026 0.008,0.008 -0.0281,0.0358 -0.0457,0.0472 -0.0457,0.0295 z m 0.17184,-0.15036 c 0,-0.004 0.0169,-0.0214 0.0376,-0.0376 0.0341,-0.0267 0.0348,-0.026 0.008,0.008 -0.0281,0.0358 -0.0457,0.0472 -0.0457,0.0295 z m 0.18259,-0.16373 c 0.0214,-0.0236 0.0437,-0.043 0.0496,-0.043 0.006,0 -0.007,0.0193 -0.0281,0.043 -0.0214,0.0236 -0.0437,0.043 -0.0496,0.043 -0.006,0 0.007,-0.0193 0.0281,-0.043 z m 0.17184,-0.15037 c 0.0214,-0.0236 0.0437,-0.043 0.0496,-0.043 0.006,0 -0.007,0.0193 -0.0281,0.043 -0.0214,0.0236 -0.0437,0.043 -0.0496,0.043 -0.006,0 0.007,-0.0193 0.0281,-0.043 z m 0.17185,-0.15036 c 0.0214,-0.0236 0.0437,-0.043 0.0496,-0.043 0.006,0 -0.007,0.0193 -0.0281,0.043 -0.0214,0.0236 -0.0437,0.043 -0.0496,0.043 -0.006,0 0.007,-0.0193 0.0281,-0.043 z m 0.17184,-0.15036 c 0.0214,-0.0236 0.0437,-0.043 0.0496,-0.043 0.006,0 -0.007,0.0193 -0.0281,0.043 -0.0214,0.0236 -0.0437,0.043 -0.0496,0.043 -0.006,0 0.007,-0.0193 0.0281,-0.043 z m 0.13962,-0.11552 c 0,-0.004 0.0169,-0.0214 0.0376,-0.0376 0.0341,-0.0267 0.0348,-0.026 0.008,0.008 -0.0281,0.0358 -0.0457,0.0472 -0.0457,0.0295 z m 0.17185,-0.15036 c 0,-0.004 0.0169,-0.0214 0.0376,-0.0376 0.0341,-0.0267 0.0348,-0.026 0.008,0.008 -0.0281,0.0358 -0.0457,0.0472 -0.0457,0.0295 z m 0.18258,-0.16373 c 0.0214,-0.0236 0.0437,-0.043 0.0496,-0.043 0.006,0 -0.007,0.0193 -0.0281,0.043 -0.0214,0.0236 -0.0437,0.043 -0.0496,0.043 -0.006,0 0.007,-0.0193 0.0281,-0.043 z m 0.17184,-0.15037 c 0.0214,-0.0236 0.0437,-0.043 0.0496,-0.043 0.006,0 -0.007,0.0193 -0.0281,0.043 -0.0214,0.0236 -0.0437,0.043 -0.0496,0.043 -0.006,0 0.007,-0.0193 0.0281,-0.043 z m 0.17185,-0.15036 c 0.0214,-0.0236 0.0437,-0.043 0.0496,-0.043 0.006,0 -0.007,0.0193 -0.0281,0.043 -0.0214,0.0236 -0.0437,0.043 -0.0496,0.043 -0.006,0 0.007,-0.0193 0.0281,-0.043 z m 0.17184,-0.15036 c 0.0214,-0.0236 0.0437,-0.043 0.0496,-0.043 0.006,0 -0.007,0.0193 -0.0281,0.043 -0.0214,0.0236 -0.0437,0.043 -0.0496,0.043 -0.006,0 0.007,-0.0193 0.0281,-0.043 z m 0.31147,-0.26588 c 0,-0.004 0.0169,-0.0214 0.0376,-0.0376 0.0341,-0.0267 0.0348,-0.026 0.008,0.008 -0.0281,0.0358 -0.0457,0.0472 -0.0457,0.0295 z m 0.18258,-0.16373 c 0.0214,-0.0236 0.0437,-0.043 0.0496,-0.043 0.006,0 -0.007,0.0193 -0.0281,0.043 -0.0214,0.0236 -0.0437,0.043 -0.0496,0.043 -0.006,0 0.007,-0.0193 0.0281,-0.043 z m 0.17184,-0.15036 c 0.0214,-0.0236 0.0437,-0.043 0.0496,-0.043 0.006,0 -0.007,0.0193 -0.0281,0.043 -0.0214,0.0236 -0.0437,0.043 -0.0496,0.043 -0.006,0 0.007,-0.0193 0.0281,-0.043 z m 0.17185,-0.15037 c 0.0214,-0.0236 0.0437,-0.043 0.0496,-0.043 0.006,0 -0.007,0.0193 -0.0281,0.043 -0.0214,0.0236 -0.0437,0.043 -0.0496,0.043 -0.006,0 0.007,-0.0193 0.0281,-0.043 z m 0.17184,-0.15036 c 0.0214,-0.0236 0.0437,-0.043 0.0496,-0.043 0.006,0 -0.007,0.0193 -0.0281,0.043 -0.0214,0.0236 -0.0437,0.043 -0.0496,0.043 -0.006,0 0.007,-0.0193 0.0281,-0.043 z m 0.13962,-0.11551 c 0,-0.004 0.0169,-0.0214 0.0376,-0.0376 0.0341,-0.0267 0.0348,-0.026 0.008,0.008 -0.0281,0.0358 -0.0457,0.0472 -0.0457,0.0295 z m 0.17185,-0.15037 c 0,-0.004 0.0169,-0.0214 0.0376,-0.0376 0.0341,-0.0267 0.0348,-0.026 0.008,0.008 -0.0281,0.0358 -0.0457,0.0472 -0.0457,0.0295 z m 0.18258,-0.16373 c 0.0214,-0.0236 0.0437,-0.043 0.0496,-0.043 0.006,0 -0.007,0.0193 -0.0281,0.043 -0.0214,0.0236 -0.0437,0.043 -0.0496,0.043 -0.006,0 0.007,-0.0193 0.0281,-0.043 z m 0.17184,-0.15036 c 0.0214,-0.0236 0.0437,-0.043 0.0496,-0.043 0.006,0 -0.007,0.0193 -0.0281,0.043 -0.0214,0.0236 -0.0437,0.043 -0.0496,0.043 -0.006,0 0.007,-0.0193 0.0281,-0.043 z m 0.17185,-0.15037 c 0.0214,-0.0236 0.0437,-0.043 0.0496,-0.043 0.006,0 -0.007,0.0193 -0.0281,0.043 -0.0214,0.0236 -0.0437,0.043 -0.0496,0.043 -0.006,0 0.007,-0.0193 0.0281,-0.043 z m 0.13962,-0.11551 c 0,-0.004 0.0169,-0.0214 0.0376,-0.0376 0.0341,-0.0267 0.0348,-0.026 0.008,0.008 -0.0281,0.0358 -0.0457,0.0472 -0.0457,0.0295 z m 0.17184,-0.15036 c 0,-0.004 0.0169,-0.0214 0.0376,-0.0376 0.0341,-0.0267 0.0348,-0.026 0.008,0.008 -0.0281,0.0358 -0.0457,0.0472 -0.0457,0.0295 z m 0.17185,-0.15036 c 0,-0.004 0.0169,-0.0214 0.0376,-0.0376 0.0341,-0.0267 0.0348,-0.026 0.008,0.008 -0.0281,0.0358 -0.0457,0.0472 -0.0457,0.0295 z m 0.18258,-0.16374 c 0.0214,-0.0236 0.0437,-0.043 0.0496,-0.043 0.006,0 -0.007,0.0193 -0.0281,0.043 -0.0214,0.0236 -0.0437,0.043 -0.0496,0.043 -0.006,0 0.007,-0.0193 0.0281,-0.043 z m 0.17185,-0.15036 c 0.0214,-0.0236 0.0437,-0.043 0.0496,-0.043 0.006,0 -0.007,0.0193 -0.0281,0.043 -0.0214,0.0236 -0.0437,0.043 -0.0496,0.043 -0.006,0 0.007,-0.0193 0.0281,-0.043 z m 0.17184,-0.15036 c 0.0214,-0.0236 0.0437,-0.043 0.0496,-0.043 0.006,0 -0.007,0.0193 -0.0281,0.043 -0.0214,0.0236 -0.0437,0.043 -0.0496,0.043 -0.006,0 0.007,-0.0193 0.0281,-0.043 z m 0.17184,-0.15037 c 0.0214,-0.0236 0.0437,-0.043 0.0496,-0.043 0.006,0 -0.007,0.0193 -0.0281,0.043 -0.0214,0.0236 -0.0437,0.043 -0.0496,0.043 -0.006,0 0.007,-0.0193 0.0281,-0.043 z m 0.13963,-0.11551 c 0,-0.004 0.0169,-0.0214 0.0376,-0.0376 0.0341,-0.0267 0.0348,-0.026 0.008,0.008 -0.0281,0.0358 -0.0457,0.0472 -0.0457,0.0295 z m 0.17184,-0.15036 c 0,-0.004 0.0169,-0.0214 0.0376,-0.0376 0.0341,-0.0267 0.0348,-0.026 0.008,0.008 -0.0281,0.0358 -0.0457,0.0472 -0.0457,0.0295 z m 0.18258,-0.16374 c 0.0214,-0.0236 0.0437,-0.043 0.0496,-0.043 0.006,0 -0.007,0.0193 -0.0281,0.043 -0.0214,0.0236 -0.0437,0.043 -0.0496,0.043 -0.006,0 0.007,-0.0193 0.0281,-0.043 z m 0.17185,-0.15036 c 0.0214,-0.0236 0.0437,-0.043 0.0496,-0.043 0.006,0 -0.007,0.0193 -0.0281,0.043 -0.0214,0.0236 -0.0437,0.043 -0.0496,0.043 -0.006,0 0.007,-0.0193 0.0281,-0.043 z m 0.17184,-0.15036 c 0.0214,-0.0236 0.0437,-0.043 0.0496,-0.043 0.006,0 -0.007,0.0193 -0.0281,0.043 -0.0214,0.0236 -0.0437,0.043 -0.0496,0.043 -0.006,0 0.007,-0.0193 0.0281,-0.043 z m 0.17184,-0.15036 c 0.0214,-0.0236 0.0437,-0.043 0.0496,-0.043 0.006,0 -0.007,0.0193 -0.0281,0.043 -0.0214,0.0236 -0.0437,0.043 -0.0496,0.043 -0.006,0 0.007,-0.0193 0.0281,-0.043 z m 0.13963,-0.11552 c 0,-0.004 0.0169,-0.0214 0.0376,-0.0376 0.0341,-0.0267 0.0348,-0.026 0.008,0.008 -0.0281,0.0358 -0.0457,0.0472 -0.0457,0.0295 z m 0.17184,-0.15036 c 0,-0.004 0.0169,-0.0214 0.0376,-0.0376 0.0341,-0.0267 0.0348,-0.026 0.008,0.008 -0.0281,0.0358 -0.0457,0.0472 -0.0457,0.0295 z m 0.17184,-0.15036 c 0,-0.004 0.0169,-0.0214 0.0376,-0.0376 0.0341,-0.0267 0.0348,-0.026 0.008,0.008 -0.0281,0.0358 -0.0457,0.0472 -0.0457,0.0295 z m 0.18259,-0.16374 c 0.0214,-0.0236 0.0437,-0.043 0.0496,-0.043 0.006,0 -0.007,0.0193 -0.0281,0.043 -0.0214,0.0236 -0.0437,0.043 -0.0496,0.043 -0.006,0 0.007,-0.0193 0.0281,-0.043 z m 0.17184,-0.15036 c 0.0214,-0.0236 0.0437,-0.043 0.0496,-0.043 0.006,0 -0.007,0.0193 -0.0281,0.043 -0.0214,0.0236 -0.0437,0.043 -0.0496,0.043 -0.006,0 0.007,-0.0193 0.0281,-0.043 z m 0.17184,-0.15036 c 0.0214,-0.0236 0.0437,-0.043 0.0496,-0.043 0.006,0 -0.007,0.0193 -0.0281,0.043 -0.0214,0.0236 -0.0437,0.043 -0.0496,0.043 -0.006,0 0.007,-0.0193 0.0281,-0.043 z m 0.17185,-0.15037 c 0.0214,-0.0236 0.0437,-0.043 0.0496,-0.043 0.006,0 -0.007,0.0193 -0.0281,0.043 -0.0214,0.0236 -0.0437,0.043 -0.0496,0.043 -0.006,0 0.007,-0.0193 0.0281,-0.043 z m 0.13962,-0.11551 c 0,-0.004 0.0169,-0.0214 0.0376,-0.0376 0.0341,-0.0267 0.0348,-0.026 0.008,0.008 -0.0281,0.0358 -0.0457,0.0472 -0.0457,0.0295 z m 0.17184,-0.15036 c 0,-0.004 0.0169,-0.0214 0.0376,-0.0376 0.0341,-0.0267 0.0348,-0.026 0.008,0.008 -0.0281,0.0358 -0.0457,0.0472 -0.0457,0.0295 z m 0.18259,-0.16374 c 0.0214,-0.0236 0.0437,-0.043 0.0496,-0.043 0.006,0 -0.007,0.0193 -0.0281,0.043 -0.0214,0.0236 -0.0437,0.043 -0.0496,0.043 -0.006,0 0.007,-0.0193 0.0281,-0.043 z m 0.17184,-0.15036 c 0.0214,-0.0236 0.0437,-0.043 0.0496,-0.043 0.006,0 -0.007,0.0193 -0.0281,0.043 -0.0214,0.0236 -0.0437,0.043 -0.0496,0.043 -0.006,0 0.007,-0.0193 0.0281,-0.043 z m 0.17184,-0.15036 c 0.0214,-0.0236 0.0437,-0.043 0.0496,-0.043 0.006,0 -0.007,0.0193 -0.0281,0.043 -0.0214,0.0236 -0.0437,0.043 -0.0496,0.043 -0.006,0 0.007,-0.0193 0.0281,-0.043 z m 0.17185,-0.15036 c 0.0214,-0.0236 0.0437,-0.043 0.0496,-0.043 0.006,0 -0.007,0.0193 -0.0281,0.043 -0.0214,0.0236 -0.0437,0.043 -0.0496,0.043 -0.006,0 0.007,-0.0193 0.0281,-0.043 z m 0.13962,-0.11552 c 0,-0.004 0.0169,-0.0214 0.0376,-0.0376 0.0341,-0.0267 0.0348,-0.026 0.008,0.008 -0.0281,0.0358 -0.0457,0.0472 -0.0457,0.0295 z m 0.17184,-0.15036 c 0,-0.004 0.0169,-0.0214 0.0376,-0.0376 0.0341,-0.0267 0.0348,-0.026 0.008,0.008 -0.0281,0.0358 -0.0457,0.0472 -0.0457,0.0295 z m 0.18259,-0.16373 c 0.0214,-0.0236 0.0437,-0.043 0.0496,-0.043 0.006,0 -0.007,0.0193 -0.0281,0.043 -0.0214,0.0236 -0.0437,0.043 -0.0496,0.043 -0.006,0 0.007,-0.0193 0.0281,-0.043 z m 0.17184,-0.15037 c 0.0214,-0.0236 0.0437,-0.043 0.0496,-0.043 0.006,0 -0.007,0.0193 -0.0281,0.043 -0.0214,0.0236 -0.0437,0.043 -0.0496,0.043 -0.006,0 0.007,-0.0193 0.0281,-0.043 z m 0.17185,-0.15036 c 0.0214,-0.0236 0.0437,-0.043 0.0496,-0.043 0.006,0 -0.007,0.0193 -0.0281,0.043 -0.0214,0.0236 -0.0437,0.043 -0.0496,0.043 -0.006,0 0.007,-0.0193 0.0281,-0.043 z m 0.17184,-0.15036 c 0.0214,-0.0236 0.0437,-0.043 0.0496,-0.043 0.006,0 -0.007,0.0193 -0.0281,0.043 -0.0214,0.0236 -0.0437,0.043 -0.0496,0.043 -0.006,0 0.007,-0.0193 0.0281,-0.043 z m 0.13962,-0.11552 c 0,-0.004 0.0169,-0.0214 0.0376,-0.0376 0.0341,-0.0267 0.0348,-0.026 0.008,0.008 -0.0281,0.0358 -0.0457,0.0472 -0.0457,0.0295 z m 0.17185,-0.15036 c 0,-0.004 0.0169,-0.0214 0.0376,-0.0376 0.0341,-0.0267 0.0348,-0.026 0.008,0.008 -0.0281,0.0358 -0.0457,0.0472 -0.0457,0.0295 z m 0.18258,-0.16373 c 0.0214,-0.0236 0.0437,-0.043 0.0496,-0.043 0.006,0 -0.007,0.0193 -0.0281,0.043 -0.0214,0.0236 -0.0437,0.043 -0.0496,0.043 -0.006,0 0.007,-0.0193 0.0281,-0.043 z m 0.17184,-0.15036 c 0.0214,-0.0236 0.0437,-0.043 0.0496,-0.043 0.006,0 -0.007,0.0193 -0.0281,0.043 -0.0214,0.0236 -0.0437,0.043 -0.0496,0.043 -0.006,0 0.007,-0.0193 0.0281,-0.043 z m 0.17185,-0.15037 c 0.0214,-0.0236 0.0437,-0.043 0.0496,-0.043 0.006,0 -0.007,0.0193 -0.0281,0.043 -0.0214,0.0236 -0.0437,0.043 -0.0496,0.043 -0.006,0 0.007,-0.0193 0.0281,-0.043 z m 0.31146,-0.26587 c 0,-0.004 0.0169,-0.0214 0.0376,-0.0376 0.0341,-0.0267 0.0348,-0.026 0.008,0.008 -0.0281,0.0358 -0.0457,0.0472 -0.0457,0.0295 z m 0.17185,-0.15037 c 0,-0.004 0.0169,-0.0214 0.0376,-0.0376 0.0341,-0.0267 0.0348,-0.026 0.008,0.008 -0.0281,0.0358 -0.0457,0.0472 -0.0457,0.0295 z m 0.18258,-0.16373 c 0.0214,-0.0236 0.0437,-0.043 0.0496,-0.043 0.006,0 -0.007,0.0193 -0.0281,0.043 -0.0214,0.0236 -0.0437,0.043 -0.0496,0.043 -0.006,0 0.007,-0.0193 0.0281,-0.043 z m 0.17184,-0.15036 c 0.0214,-0.0236 0.0437,-0.043 0.0496,-0.043 0.006,0 -0.007,0.0193 -0.0281,0.043 -0.0214,0.0236 -0.0437,0.043 -0.0496,0.043 -0.006,0 0.007,-0.0193 0.0281,-0.043 z m 0.17185,-0.15037 c 0.0214,-0.0236 0.0437,-0.043 0.0496,-0.043 0.006,0 -0.007,0.0193 -0.0281,0.043 -0.0214,0.0236 -0.0437,0.043 -0.0496,0.043 -0.006,0 0.007,-0.0193 0.0281,-0.043 z m 0.17184,-0.15036 c 0.0214,-0.0236 0.0437,-0.043 0.0496,-0.043 0.006,0 -0.007,0.0193 -0.0281,0.043 -0.0214,0.0236 -0.0437,0.043 -0.0496,0.043 -0.006,0 0.007,-0.0193 0.0281,-0.043 z m 0.13962,-0.11551 c 0,-0.004 0.0169,-0.0214 0.0376,-0.0376 0.0341,-0.0267 0.0348,-0.026 0.008,0.008 -0.0281,0.0358 -0.0457,0.0472 -0.0457,0.0295 z m 0.17185,-0.15036 c 0,-0.004 0.0169,-0.0214 0.0376,-0.0376 0.0341,-0.0267 0.0348,-0.0259 0.008,0.008 -0.0281,0.0358 -0.0457,0.0472 -0.0457,0.0295 z m 0.18258,-0.16374 c 0.0214,-0.0236 0.0437,-0.043 0.0496,-0.043 0.006,0 -0.007,0.0193 -0.0281,0.043 -0.0214,0.0236 -0.0437,0.043 -0.0496,0.043 -0.006,0 0.007,-0.0193 0.0281,-0.043 z m 0.17184,-0.15036 c 0.0214,-0.0236 0.0437,-0.043 0.0496,-0.043 0.006,0 -0.007,0.0193 -0.0281,0.043 -0.0214,0.0236 -0.0437,0.043 -0.0496,0.043 -0.006,0 0.007,-0.0193 0.0281,-0.043 z m 0.17185,-0.15036 c 0.0214,-0.0236 0.0437,-0.043 0.0496,-0.043 0.006,0 -0.007,0.0193 -0.0281,0.043 -0.0214,0.0236 -0.0437,0.043 -0.0496,0.043 -0.006,0 0.007,-0.0193 0.0281,-0.043 z m 0.17184,-0.15037 c 0.0214,-0.0236 0.0437,-0.043 0.0496,-0.043 0.006,0 -0.007,0.0193 -0.0281,0.043 -0.0214,0.0236 -0.0437,0.043 -0.0496,0.043 -0.006,0 0.007,-0.0193 0.0281,-0.043 z m 0.13962,-0.11551 c 0,-0.004 0.0169,-0.0214 0.0376,-0.0376 0.0341,-0.0267 0.0348,-0.026 0.008,0.008 -0.0281,0.0358 -0.0457,0.0472 -0.0457,0.0295 z"
     id="path3-8" /><path
     style="fill:#ffffff;fill-opacity:1"
     d="m 73.483967,188.70443 c 0.01149,-0.0218 0.47729,-0.91919 1.035113,-1.99429 0.557823,-1.0751 1.08457,-2.09005 1.170549,-2.25545 0.08598,-0.1654 0.351863,-0.6777 0.590855,-1.13846 0.238991,-0.46076 0.500001,-0.9634 0.580021,-1.11698 0.156276,-0.29995 4.171724,-8.03703 5.869464,-11.30946 0.566955,-1.09281 1.091387,-2.10293 1.165403,-2.2447 0.07402,-0.14177 1.12765,-2.17168 2.341408,-4.5109 1.213758,-2.33922 2.465479,-4.75093 2.781601,-5.35937 0.316123,-0.60843 0.910506,-1.75388 1.320852,-2.54543 0.410346,-0.79155 0.80678,-1.55518 0.880964,-1.69696 0.106998,-0.20448 1.586988,-3.05608 3.266478,-6.29377 0.110312,-0.21265 0.388918,-0.74913 0.619124,-1.19216 l 0.418557,-0.80552 -8.95406,-0.0107 -8.95406,-0.0107 0.574367,-1.10624 c 0.315901,-0.60843 1.1185,-2.15503 1.783553,-3.43687 0.665053,-1.28185 1.269707,-2.44662 1.343675,-2.5884 0.07397,-0.14177 0.992056,-1.91068 2.040194,-3.93092 2.273571,-4.38219 2.277974,-4.39067 2.637368,-5.08012 0.07698,-0.14768 1.393789,-2.68506 2.92624,-5.63862 1.532451,-2.95356 2.856718,-5.50544 2.942815,-5.67084 0.147914,-0.28415 0.7984,-1.53766 1.175993,-2.26618 0.09491,-0.18312 0.228003,-0.43928 0.295758,-0.56923 0.06776,-0.12996 0.260979,-0.50211 0.429384,-0.827 0.168406,-0.32489 0.36669,-0.70671 0.440631,-0.84848 0.07394,-0.14177 1.127432,-2.17167 2.34109,-4.51089 1.213658,-2.33922 2.267157,-4.36912 2.34111,-4.5109 0.148871,-0.28539 0.946527,-1.82229 1.260326,-2.42835 0.11041,-0.21325 1.08998,-2.10057 2.17683,-4.19406 l 1.97608,-3.806341 h 16.11582 c 8.8637,0 16.11582,0.0055 16.11582,0.01227 0,0.0098 -1.68519,3.266073 -2.24478,4.337523 -0.074,0.141771 -0.33499,0.644413 -0.57989,1.116978 -0.24489,0.47257 -0.50584,0.97521 -0.57987,1.11699 -0.074,0.14177 -0.66353,1.27754 -1.30998,2.52395 -0.64646,1.2464 -1.24096,2.39184 -1.32113,2.54543 -0.0802,0.15359 -0.87279,1.68084 -1.7614,3.39391 -0.88861,1.71307 -1.68118,3.24033 -1.76127,3.39391 -0.0801,0.15359 -0.27842,0.5354 -0.44072,0.84848 -0.1623,0.31308 -0.36054,0.69489 -0.44053,0.84848 -0.08,0.15358 -1.12863,2.17382 -2.3303,4.48941 -1.20168,2.31559 -2.41075,4.64514 -2.68683,5.17679 -0.27607,0.53164 -1.87407,3.61032 -3.55111,6.84152 l -3.04915,5.8749 8.95612,0.005 8.95612,0.005 -1.10137,0.96089 c -0.60576,0.5285 -1.13038,0.98659 -1.16582,1.018 -0.0354,0.0314 -1.48054,1.29218 -3.21133,2.80174 -1.73078,1.50955 -3.55218,3.09826 -4.04755,3.53047 -0.49537,0.4322 -1.13337,0.98881 -1.41778,1.23691 -0.90769,0.7918 -2.12596,1.85503 -4.80027,4.18933 -1.4343,1.25196 -2.64774,2.31011 -2.69652,2.35146 -0.0742,0.0629 -7.19545,6.27433 -7.3906,6.44636 -0.22799,0.20099 -1.18623,1.0371 -4.39275,3.83289 -1.9907,1.73571 -3.648452,3.18135 -3.683895,3.21254 -0.238865,0.21018 -1.113859,0.97381 -3.555013,3.10255 -1.529945,1.33415 -2.936899,2.56125 -3.126565,2.72689 -0.554314,0.48409 -2.03672,1.77723 -3.940502,3.4374 -0.974675,0.84995 -1.801135,1.57116 -1.836578,1.6027 -0.05568,0.0495 -0.892018,0.77894 -2.385981,2.08091 -0.223562,0.19483 -0.860788,0.75085 -1.416057,1.2356 -1.074969,0.93843 -5.91414,5.1598 -7.065644,6.16358 -0.378838,0.33024 -0.914353,0.79753 -1.190032,1.03841 -0.27568,0.24089 -0.491835,0.42017 -0.480346,0.39841 z"
     id="path2-8" /></g></svg>
